<svg height="511pt" viewBox="0 -8 511.9617 511" width="511pt" xmlns="http://www.w3.org/2000/svg"><path d="m85.3125 333.28125h-51.199219v-121.171875l76.800781-64 76.800782 64v121.171875h-51.199219" fill="#e6e7e8"/><path d="m136.515625 290.613281v42.667969h-51.203125v-42.667969c.03125-9.414062 7.65625-17.039062 17.066406-17.066406h17.070313c9.414062.027344 17.035156 7.652344 17.066406 17.066406zm0 0" fill="#b19046"/><path d="m219.886719 227.808594c-1.617188 1.960937-4.03125 3.089844-6.574219 3.070312-1.988281-.011718-3.914062-.703125-5.460938-1.960937l-20.136718-16.808594-76.800782-64-76.800781 64-20.136719 16.808594c-3.640624 2.980469-9 2.484375-12.03125-1.109375-2.976562-3.640625-2.484374-8.996094 1.109376-12.03125l99.667968-83.03125c4.746094-3.953125 11.636719-3.953125 16.382813 0l99.671875 83.03125c3.589844 3.035156 4.082031 8.390625 1.109375 12.03125zm0 0" fill="#b19046"/><path d="m136.515625 213.8125c0 14.140625-11.464844 25.601562-25.601563 25.601562-14.136718 0-25.601562-11.460937-25.601562-25.601562 0-14.136719 11.464844-25.597656 25.601562-25.597656 14.136719 0 25.601563 11.460937 25.601563 25.597656zm0 0" fill="#2fa8cc"/><path d="m375.449219 333.28125h-51.203125v-121.171875l76.800781-64 76.800781 64v121.171875h-51.199218" fill="#e6e7e8"/><path d="m426.648438 213.8125c0 14.140625-11.460938 25.601562-25.601563 25.601562-14.136719 0-25.597656-11.460937-25.597656-25.601562 0-14.136719 11.460937-25.597656 25.597656-25.597656 14.140625 0 25.601563 11.460937 25.601563 25.597656zm0 0" fill="#e6e7e8"/><path d="m426.648438 290.613281v42.667969h-51.199219v-42.667969c.027343-9.414062 7.652343-17.039062 17.066406-17.066406h17.066406c9.414063.027344 17.039063 7.652344 17.066407 17.066406zm0 0" fill="#b19046"/><path d="m510.019531 227.808594c-1.617187 1.960937-4.03125 3.089844-6.570312 3.070312-1.992188-.011718-3.917969-.703125-5.464844-1.960937l-20.136719-16.808594-76.800781-64-76.800781 64-20.136719 16.808594c-2.347656 1.953125-5.558594 2.5-8.421875 1.445312-2.863281-1.058593-4.945312-3.5625-5.460938-6.570312-.515624-3.007813.613282-6.066407 2.960938-8.015625l99.667969-83.03125c4.746093-3.953125 11.636719-3.953125 16.382812 0l99.671875 83.03125c3.589844 3.035156 4.082032 8.390625 1.109375 12.03125zm0 0" fill="#b19046"/><path d="m426.648438 213.8125c0 14.140625-11.460938 25.601562-25.601563 25.601562-14.136719 0-25.597656-11.460937-25.597656-25.601562 0-14.136719 11.460937-25.597656 25.597656-25.597656 14.140625 0 25.601563 11.460937 25.601563 25.597656zm0 0" fill="#2fa8cc"/><g fill="#804537"><path d="m220.910156 342.667969-3.328125 33.28125h-209.066406v-38.402344c0-2.355469 1.910156-4.265625 4.265625-4.265625h199.679688c2.402343.011719 4.691406 1.039062 6.300781 2.824219 1.609375 1.789062 2.386719 4.167969 2.148437 6.5625zm0 0"/><path d="m261.699219 426.378906c-.683594 8.789063-1.367188 17.578125-2.132813 26.367188h-251.050781v-76.796875h209.066406l-3.160156 31.570312c-.25 2.644531.734375 5.257813 2.671875 7.078125 1.9375 1.820313 4.605469 2.640625 7.226562 2.222656l27.992188-4.691406c3.316406-.550781 6.648438.882813 8.53125 3.667969 1.519531 3.320313 1.820312 7.066406.855469 10.582031zm0 0"/><path d="m259.566406 452.746094c-1.195312 14.167968-2.390625 28.417968-3.585937 42.667968h-243.199219c-2.355469 0-4.265625-1.910156-4.265625-4.265624v-38.402344zm0 0"/><path d="m503.449219 452.746094v38.402344c0 2.355468-1.910157 4.265624-4.269531 4.265624h-243.199219l26.878906-42.667968zm0 0"/><path d="m503.449219 375.949219v76.796875h-220.589844l40.023437-63.65625c1.683594-2.625 1.800782-5.957032.308594-8.695313-1.492187-2.738281-4.359375-4.441406-7.476562-4.445312zm0 0"/><path d="m503.449219 337.546875v38.402344h-213.335938c-4.710937 0-8.53125-3.820313-8.53125-8.535157v-25.601562c0-4.710938 3.820313-8.53125 8.53125-8.53125h209.066407c2.359374 0 4.269531 1.910156 4.269531 4.265625zm0 0"/></g><path d="m261.699219 426.378906c-.683594 8.789063-1.367188 17.578125-2.132813 26.367188h-251.050781v-76.796875h209.066406l-3.160156 31.570312c-.25 2.644531.734375 5.257813 2.671875 7.078125 1.9375 1.820313 4.605469 2.640625 7.226562 2.222656l27.992188-4.691406c3.316406-.550781 6.648438.882813 8.53125 3.667969 1.519531 3.320313 1.820312 7.066406.855469 10.582031zm0 0" fill="#7f6e5d"/><path d="m503.449219 375.949219v76.796875h-220.589844l40.023437-63.65625c1.683594-2.625 1.800782-5.957032.308594-8.695313-1.492187-2.738281-4.359375-4.441406-7.476562-4.445312zm0 0" fill="#7f6e5d"/><path d="m204.523438 56.460938c-10.34375 6.175781-16.714844 17.304687-16.808594 29.351562h-4.265625c-2.140625 0-4.269531.316406-6.316407.941406-3.324218 1.007813-6.34375 2.824219-8.789062 5.289063-2.957031 2.964843-4.972656 6.734375-5.804688 10.835937h-30.292968c-11.78125 0-21.332032-9.550781-21.332032-21.332031s9.550782-21.332031 21.332032-21.332031h4.269531c.207031-17.964844 14.308594-32.691406 32.246094-33.683594 17.941406-.988281 33.578125 12.09375 35.761719 29.929688zm0 0" fill="#67b9cc"/><path d="m281.582031 107.148438c.015625 5.664062-2.226562 11.097656-6.230469 15.105468-4.003906 4.003906-9.441406 6.246094-15.105468 6.226563h-76.796875c-5.660157 0-11.085938-2.246094-15.085938-6.246094-4-4.003906-6.25-9.429687-6.25-15.085937.011719-1.433594.15625-2.863282.425781-4.269532.832032-4.101562 2.847657-7.871094 5.804688-10.835937 2.445312-2.464844 5.464844-4.28125 8.789062-5.289063 2.046876-.625 4.175782-.941406 6.316407-.941406h4.265625c.09375-12.046875 6.464844-23.175781 16.808594-29.351562 5.230468-3.144532 11.222656-4.796876 17.324218-4.78125 18.851563 0 34.132813 15.28125 34.132813 34.132812h4.265625c11.785156 0 21.335937 9.554688 21.335937 21.335938zm0 0" fill="#b0d3f0"/><path d="m426.648438 34.613281c0-18.851562-15.28125-34.132812-34.132813-34.132812s-34.136719 15.28125-34.136719 34.132812h-4.265625c-11.78125 0-21.332031 9.550781-21.332031 21.335938 0 11.78125 9.550781 21.332031 21.332031 21.332031h76.800781c11.78125 0 21.332032-9.550781 21.332032-21.332031 0-11.785157-9.550782-21.335938-21.332032-21.335938zm0 0" fill="#b0d3f0"/></svg>