<svg height="512pt" viewBox="-4 0 512 512" width="512pt" xmlns="http://www.w3.org/2000/svg"><path d="m347.117188 8.679688h104.136718c4.792969 0 8.679688 3.882812 8.679688 8.675781v69.425781h-121.492188v-69.425781c0-4.792969 3.882813-8.675781 8.675782-8.675781zm0 0" fill="#df4d60"/><path d="m381.832031 52.066406h-8.679687c-4.792969 0-8.679688-3.882812-8.679688-8.675781s3.886719-8.679687 8.679688-8.679687h8.679687c4.792969 0 8.675781 3.886718 8.675781 8.679687s-3.882812 8.675781-8.675781 8.675781zm0 0" fill="#802f34"/><path d="m425.21875 52.066406h-8.675781c-4.792969 0-8.679688-3.882812-8.679688-8.675781s3.886719-8.679687 8.679688-8.679687h8.675781c4.792969 0 8.679688 3.886718 8.679688 8.679687s-3.886719 8.675781-8.679688 8.675781zm0 0" fill="#802f34"/><path d="m60.746094 78.101562c-4.792969 0-8.679688-3.886718-8.679688-8.679687v-60.742187c0-4.792969 3.886719-8.679688 8.679688-8.679688 4.792968 0 8.675781 3.886719 8.675781 8.679688v60.742187c0 4.792969-3.882813 8.679687-8.675781 8.679687zm0 0" fill="#3f5c6c"/><path d="m112.8125 78.101562c-4.792969 0-8.675781-3.886718-8.675781-8.679687v-26.03125c0-4.792969 3.882812-8.679687 8.675781-8.679687s8.679688 3.886718 8.679688 8.679687v26.03125c0 4.792969-3.886719 8.679687-8.679688 8.679687zm0 0" fill="#3f5c6c"/><path d="m147.527344 79.1875v302.644531h-121.492188v-302.644531c-.269531-5.082031 3.597656-9.433594 8.675782-9.765625h104.136718c5.078125.332031 8.945313 4.683594 8.679688 9.765625zm0 0" fill="#9bc8c2"/><path d="m321.085938 78.101562h156.203124c4.792969 0 8.675782 3.886719 8.675782 8.679688v286.371094h-173.558594v-286.371094c0-4.792969 3.886719-8.679688 8.679688-8.679688zm0 0" fill="#d75e72"/><path d="m215.996094 356.664062-3.386719 33.84375h-212.609375v-39.050781c0-2.394531 1.941406-4.339843 4.339844-4.339843h203.0625c2.445312.011718 4.773437 1.058593 6.40625 2.875 1.636718 1.816406 2.429687 4.238281 2.1875 6.671874zm0 0" fill="#804537"/><path d="m257.476562 441.796875c-.695312 8.9375-1.390624 17.875-2.171874 26.8125h-255.304688v-78.101563h212.609375l-3.210937 32.109376c-.253907 2.6875.746093 5.347656 2.714843 7.195312 1.96875 1.851562 4.683594 2.6875 7.351563 2.261719l28.464844-4.769531c3.375-.5625 6.761718.898437 8.679687 3.730468 1.542969 3.371094 1.847656 7.183594.867187 10.761719zm0 0" fill="#804537"/><path d="m255.304688 468.609375c-1.214844 14.40625-2.429688 28.898437-3.644532 43.390625h-247.320312c-2.398438 0-4.339844-1.941406-4.339844-4.339844v-39.050781zm0 0" fill="#804537"/><path d="m503.320312 468.609375v39.050781c0 2.398438-1.941406 4.339844-4.335937 4.339844h-247.324219l27.335938-43.390625zm0 0" fill="#804537"/><path d="m503.320312 390.507812v78.101563h-224.324218l40.699218-64.738281c1.714844-2.667969 1.832032-6.058594.316407-8.839844-1.519531-2.785156-4.433594-4.515625-7.605469-4.523438zm0 0" fill="#804537"/><path d="m503.320312 351.457031v39.050781h-216.949218c-4.789063 0-8.675782-3.882812-8.675782-8.675781v-26.035156c0-4.792969 3.886719-8.679687 8.675782-8.679687h212.613281c2.394531 0 4.335937 1.945312 4.335937 4.339843zm0 0" fill="#804537"/><path d="m257.476562 441.796875c-.695312 8.9375-1.390624 17.875-2.171874 26.8125h-255.304688v-78.101563h212.609375l-3.210937 32.109376c-.253907 2.6875.746093 5.347656 2.714843 7.195312 1.96875 1.851562 4.683594 2.6875 7.351563 2.261719l28.464844-4.769531c3.375-.5625 6.761718.898437 8.679687 3.730468 1.542969 3.371094 1.847656 7.183594.867187 10.761719zm0 0" fill="#7f6e5d"/><path d="m503.320312 390.507812v78.101563h-224.324218l40.699218-64.738281c1.714844-2.667969 1.832032-6.058594.316407-8.839844-1.519531-2.785156-4.433594-4.515625-7.605469-4.523438zm0 0" fill="#7f6e5d"/><g fill="#3f5c6c"><path d="m69.421875 112.8125h-8.675781c-4.792969 0-8.679688-3.882812-8.679688-8.675781s3.886719-8.679688 8.679688-8.679688h8.675781c4.792969 0 8.679687 3.886719 8.679687 8.679688s-3.886718 8.675781-8.679687 8.675781zm0 0"/><path d="m112.8125 112.8125h-8.675781c-4.792969 0-8.679688-3.882812-8.679688-8.675781s3.886719-8.679688 8.679688-8.679688h8.675781c4.792969 0 8.679688 3.886719 8.679688 8.679688s-3.886719 8.675781-8.679688 8.675781zm0 0"/><path d="m69.421875 147.527344h-8.675781c-4.792969 0-8.679688-3.886719-8.679688-8.679688 0-4.792968 3.886719-8.679687 8.679688-8.679687h8.675781c4.792969 0 8.679687 3.886719 8.679687 8.679687 0 4.792969-3.886718 8.679688-8.679687 8.679688zm0 0"/><path d="m112.8125 147.527344h-8.675781c-4.792969 0-8.679688-3.886719-8.679688-8.679688 0-4.792968 3.886719-8.679687 8.679688-8.679687h8.675781c4.792969 0 8.679688 3.886719 8.679688 8.679687 0 4.792969-3.886719 8.679688-8.679688 8.679688zm0 0"/><path d="m69.421875 182.238281h-8.675781c-4.792969 0-8.679688-3.886719-8.679688-8.679687 0-4.792969 3.886719-8.675782 8.679688-8.675782h8.675781c4.792969 0 8.679687 3.882813 8.679687 8.675782 0 4.792968-3.886718 8.679687-8.679687 8.679687zm0 0"/><path d="m112.8125 182.238281h-8.675781c-4.792969 0-8.679688-3.886719-8.679688-8.679687 0-4.792969 3.886719-8.675782 8.679688-8.675782h8.675781c4.792969 0 8.679688 3.882813 8.679688 8.675782 0 4.792968-3.886719 8.679687-8.679688 8.679687zm0 0"/><path d="m69.421875 216.949219h-8.675781c-4.792969 0-8.679688-3.886719-8.679688-8.679688s3.886719-8.675781 8.679688-8.675781h8.675781c4.792969 0 8.679687 3.882812 8.679687 8.675781s-3.886718 8.679688-8.679687 8.679688zm0 0"/><path d="m112.8125 216.949219h-8.675781c-4.792969 0-8.679688-3.886719-8.679688-8.679688s3.886719-8.675781 8.679688-8.675781h8.675781c4.792969 0 8.679688 3.882812 8.679688 8.675781s-3.886719 8.679688-8.679688 8.679688zm0 0"/><path d="m69.421875 251.660156h-8.675781c-4.792969 0-8.679688-3.882812-8.679688-8.675781s3.886719-8.679687 8.679688-8.679687h8.675781c4.792969 0 8.679687 3.886718 8.679687 8.679687s-3.886718 8.675781-8.679687 8.675781zm0 0"/><path d="m112.8125 251.660156h-8.675781c-4.792969 0-8.679688-3.882812-8.679688-8.675781s3.886719-8.679687 8.679688-8.679687h8.675781c4.792969 0 8.679688 3.886718 8.679688 8.679687s-3.886719 8.675781-8.679688 8.675781zm0 0"/><path d="m69.421875 286.371094h-8.675781c-4.792969 0-8.679688-3.882813-8.679688-8.675782 0-4.792968 3.886719-8.679687 8.679688-8.679687h8.675781c4.792969 0 8.679687 3.886719 8.679687 8.679687 0 4.792969-3.886718 8.675782-8.679687 8.675782zm0 0"/><path d="m112.8125 286.371094h-8.675781c-4.792969 0-8.679688-3.882813-8.679688-8.675782 0-4.792968 3.886719-8.679687 8.679688-8.679687h8.675781c4.792969 0 8.679688 3.886719 8.679688 8.679687 0 4.792969-3.886719 8.675782-8.679688 8.675782zm0 0"/><path d="m69.421875 321.085938h-8.675781c-4.792969 0-8.679688-3.886719-8.679688-8.679688s3.886719-8.675781 8.679688-8.675781h8.675781c4.792969 0 8.679687 3.882812 8.679687 8.675781s-3.886718 8.679688-8.679687 8.679688zm0 0"/><path d="m112.8125 321.085938h-8.675781c-4.792969 0-8.679688-3.886719-8.679688-8.679688s3.886719-8.675781 8.679688-8.675781h8.675781c4.792969 0 8.679688 3.882812 8.679688 8.675781s-3.886719 8.679688-8.679688 8.679688zm0 0"/></g><path d="m381.832031 121.492188h-34.714843c-4.792969 0-8.675782-3.886719-8.675782-8.679688s3.882813-8.675781 8.675782-8.675781h34.714843c4.792969 0 8.675781 3.882812 8.675781 8.675781s-3.882812 8.679688-8.675781 8.679688zm0 0" fill="#802f34"/><path d="m451.253906 156.203125h-104.136718c-4.792969 0-8.675782-3.886719-8.675782-8.675781 0-4.792969 3.882813-8.679688 8.675782-8.679688h104.136718c4.792969 0 8.679688 3.886719 8.679688 8.679688 0 4.789062-3.886719 8.675781-8.679688 8.675781zm0 0" fill="#802f34"/><path d="m451.253906 190.914062h-104.136718c-4.792969 0-8.675782-3.882812-8.675782-8.675781s3.882813-8.679687 8.675782-8.679687h104.136718c4.792969 0 8.679688 3.886718 8.679688 8.679687s-3.886719 8.675781-8.679688 8.675781zm0 0" fill="#802f34"/><path d="m451.253906 225.628906h-104.136718c-4.792969 0-8.675782-3.886718-8.675782-8.679687s3.882813-8.679688 8.675782-8.679688h104.136718c4.792969 0 8.679688 3.886719 8.679688 8.679688s-3.886719 8.679687-8.679688 8.679687zm0 0" fill="#802f34"/><path d="m451.253906 260.339844h-104.136718c-4.792969 0-8.675782-3.886719-8.675782-8.679688 0-4.792968 3.882813-8.675781 8.675782-8.675781h104.136718c4.792969 0 8.679688 3.882813 8.679688 8.675781 0 4.792969-3.886719 8.679688-8.679688 8.679688zm0 0" fill="#802f34"/><path d="m373.152344 303.730469v43.386719h52.066406v-43.386719c0-4.792969-3.882812-8.679688-8.675781-8.679688h-34.710938c-4.792969 0-8.679687 3.886719-8.679687 8.679688zm0 0" fill="#802d40"/></svg>