<svg height="512pt" viewBox="0 -4 512.35898 512" width="512pt" xmlns="http://www.w3.org/2000/svg"><path d="m477.867188 202.589844v215.722656h-221.867188v-215.808594l110.933594-83.199218zm0 0" fill="#e6e7e8"/><path d="m212.480469 418.3125h-199.679688c-2.335937 0-4.234375 1.875-4.265625 4.207031v76.917969c.03125 2.335938 1.929688 4.207031 4.265625 4.207031h486.398438c2.335937 0 4.234375-1.871093 4.265625-4.207031v-76.917969c-.03125-2.332031-1.929688-4.207031-4.265625-4.207031zm0 0" fill="#4c8056"/><path d="m307.199219 332.980469h17.066406c9.425781 0 17.066406 7.640625 17.066406 17.066406v68.265625h-51.199219v-68.265625c0-9.425781 7.640626-17.066406 17.066407-17.066406zm0 0" fill="#d25627"/><g fill="#2fa8cc"><path d="m392.535156 332.980469h42.664063c4.714843 0 8.535156 3.820312 8.535156 8.53125v34.132812c0 4.714844-3.820313 8.535157-8.535156 8.535157h-42.664063c-4.714844 0-8.535156-3.820313-8.535156-8.535157v-34.132812c0-4.710938 3.820312-8.53125 8.535156-8.53125zm0 0"/><path d="m392.535156 247.644531h42.664063c4.714843 0 8.535156 3.820313 8.535156 8.535157v34.132812c0 4.714844-3.820313 8.535156-8.535156 8.535156h-42.664063c-4.714844 0-8.535156-3.820312-8.535156-8.535156v-34.132812c0-4.714844 3.820312-8.535157 8.535156-8.535157zm0 0"/><path d="m298.667969 247.644531h42.664062c4.714844 0 8.535157 3.820313 8.535157 8.535157v34.132812c0 4.714844-3.820313 8.535156-8.535157 8.535156h-42.664062c-4.714844 0-8.535157-3.820312-8.535157-8.535156v-34.132812c0-4.714844 3.820313-8.535157 8.535157-8.535157zm0 0"/></g><path d="m332.800781 222.046875h-51.199219c-4.714843 0-8.535156-3.820313-8.535156-8.535156 0-4.710938 3.820313-8.53125 8.535156-8.53125h51.199219c4.710938 0 8.53125 3.820312 8.53125 8.53125 0 4.714843-3.820312 8.535156-8.53125 8.535156zm0 0" fill="#7f8c8d"/><path d="m435.199219 222.046875h-68.265625c-4.714844 0-8.535156-3.820313-8.535156-8.535156 0-4.710938 3.820312-8.53125 8.535156-8.53125h68.265625c4.714843 0 8.535156 3.820312 8.535156 8.53125 0 4.714843-3.820313 8.535156-8.535156 8.535156zm0 0" fill="#7f8c8d"/><path d="m396.800781 59.914062h-89.601562c-4.710938 0-8.53125-3.820312-8.53125-8.535156 0-4.710937 3.820312-8.53125 8.53125-8.53125h89.601562c7.070313 0 12.800781-5.730468 12.800781-12.800781s-5.730468-12.800781-12.800781-12.800781h-12.800781c-4.710938 0-8.535156-3.820313-8.535156-8.535156 0-4.710938 3.824218-8.53125 8.535156-8.53125h12.800781c16.492188 0 29.867188 13.371093 29.867188 29.867187s-13.375 29.867187-29.867188 29.867187zm0 0" fill="#b0d3f0"/><path d="m482.132812 95.113281h-89.597656c-4.714844 0-8.535156-3.820312-8.535156-8.535156 0-4.710937 3.820312-8.53125 8.535156-8.53125h89.597656c7.070313 0 12.800782-5.730469 12.800782-12.800781 0-7.070313-5.730469-12.800782-12.800782-12.800782h-12.800781c-4.710937 0-8.53125-3.820312-8.53125-8.53125 0-4.714843 3.820313-8.535156 8.53125-8.535156h12.800781c16.496094 0 29.867188 13.371094 29.867188 29.867188s-13.371094 29.867187-29.867188 29.867187zm0 0" fill="#b0d3f0"/><path d="m503.464844 422.496094v38.484375h-494.929688v-38.484375c.003906-1.125.460938-2.195313 1.261719-2.980469s1.882813-1.21875 3.003906-1.203125h486.398438c1.121093-.015625 2.203125.417969 3.003906 1.203125s1.257813 1.855469 1.261719 2.980469zm0 0" fill="#24ae5f"/><path d="m503.816406 230.578125c-1.847656 0-3.644531-.597656-5.121094-1.707031l-131.761718-98.917969-131.414063 98.5625c-2.4375 1.828125-5.667969 2.21875-8.472656 1.019531-2.800781-1.199218-4.753906-3.800781-5.117187-6.828125-.367188-3.023437.910156-6.015625 3.351562-7.847656l136.53125-102.398437c3.035156-2.277344 7.207031-2.277344 10.242188 0l136.890624 102.757812c2.9375 2.203125 4.136719 6.042969 2.976563 9.527344-1.164063 3.484375-4.421875 5.832031-8.097656 5.832031zm0 0" fill="#d25627"/><path d="m247.464844 42.847656c0-18.851562-53.484375-34.136718-119.464844-34.136718s-119.464844 15.285156-119.464844 34.136718c0 18.851563 53.484375 34.132813 119.464844 34.132813s119.464844-15.28125 119.464844-34.132813zm0 0" fill="#bdc3c7"/><path d="m8.535156 42.847656c.394532 17.382813 3.265625 34.625 8.53125 51.199219 12.066406 36.207031 25.601563 51.199219 17.066406 102.398437-8.53125 51.199219-34.132812 102.402344 17.066407 145.066407 51.199219 42.667969 93.867187 17.066406 85.335937 76.800781 0 0 17.066406-8.53125 17.066406-42.667969 0-34.132812-59.648437-42.664062-59.734374-76.796875-.113282-42.667968 25.597656-51.203125 93.867187-93.867187 68.265625-42.667969 59.730469-162.132813 59.730469-162.132813" fill="#bdc3c7"/><path d="m256 42.242188c0-.179688-.121094-.324219-.144531-.503907-1.707031-28.519531-67.011719-41.558593-127.855469-41.558593-61.652344 0-128 13.347656-128 42.667968.378906 18.300782 3.402344 36.453125 8.96875 53.894532 2.609375 7.835937 5.28125 14.6875 7.800781 21.128906 11.417969 24.03125 14.5625 51.160156 8.949219 77.167968-1.542969 9.257813-3.71875 18.773438-5.820312 27.972657-9.769532 42.75-19.898438 86.929687 25.839843 125.054687 16.582031 13.429688 35.671875 23.421875 56.160157 29.398438 22.730468 7.628906 30.394531 10.238281 26.1875 39.636718-.472657 3.148438.851562 6.300782 3.429687 8.171876 2.578125 1.867187 5.984375 2.148437 8.832031.71875 2.226563-1.160157 21.785156-12.046876 21.785156-50.347657 0-21.460937-17.757812-34.132812-33.425781-45.351562-13.507812-9.660157-26.308593-18.785157-26.308593-31.445313-.074219-30.523437 13.03125-39.757812 63.148437-70.214844 8.0625-4.90625 16.957031-10.308593 26.699219-16.398437 71.800781-44.894531 64.09375-164.910156 63.753906-169.992187zm-29.390625 95.664062c-20.101563 9.660156-58.101563 15.875-98.609375 15.875-28.71875.535156-57.363281-3.054688-85.058594-10.660156-2.132812-9.367188-5.042968-18.542969-8.707031-27.425782 30.433594 8.941407 62.054687 13.152344 93.765625 12.484376 38.613281 0 80.878906-5.453126 105.855469-17.28125-1.804688 9.15625-4.226563 18.179687-7.246094 27.007812zm-184.582031 181.640625c-6.09375-8.121094-10.226563-17.542969-12.066406-27.527344 18.25 3.6875 36.773437 5.863281 55.382812 6.503907v.375c.136719 9.417968 3.710938 18.464843 10.050781 25.4375-17.886719-.230469-35.726562-1.828126-53.367187-4.789063zm44.96875-38.074219c-19.601563-.578125-39.105469-2.996094-58.253906-7.226562.304687-8.230469 1.25-16.425782 2.832031-24.507813 22.222656 4.222657 44.792969 6.363281 67.414062 6.398438-6.035156 7.316406-10.140625 16.027343-11.949219 25.335937zm150.382812-193.253906c-9.417968 11.230469-52.546875 22.894531-109.378906 22.894531-43 0-83.25-6.964843-102.023438-17.46875-.265624-.792969-.546874-1.484375-.855468-2.292969-2.605469-8.035156-4.554688-16.265624-5.828125-24.613281 24.167969 12.800781 67.441406 18.773438 108.707031 18.773438 42.589844 0 87.398438-6.382813 111.042969-19.984375-.230469 6.589844-.714844 14.285156-1.664063 22.691406zm-109.378906-70.972656c73.191406 0 110.933594 17.921875 110.933594 25.601562 0 7.679688-37.742188 25.597656-110.933594 25.597656s-110.933594-17.917968-110.933594-25.597656c0-7.679687 37.742188-25.601562 110.933594-25.601562zm17.066406 358.398437c.027344 4.488281-.339844 8.96875-1.09375 13.390625-5.382812-17.253906-20.230468-22.238281-36.640625-27.75-16.046875-4.71875-31.191406-12.078125-44.816406-21.777344 12.800781 1.269532 26.179687 2.003907 39.882813 2.003907 4.269531 0 8.3125-.09375 12.410156-.210938 1.328125.964844 2.660156 1.9375 3.976562 2.875 13.480469 9.660157 26.28125 18.789063 26.28125 31.46875zm-26.914062-136.890625c-5.121094.195313-10.332032.359375-15.753906.359375-22.566407.144531-45.097657-1.890625-67.273438-6.078125.460938-2.0625.929688-4.128906 1.40625-6.21875 1.605469-7.007812 3.164062-14.199218 4.566406-21.425781 25.734375 5.652344 52.023438 8.375 78.367188 8.121094 13.871094.007812 27.730468-.695313 41.523437-2.105469l-4.265625 2.628906c-15.480468 9.386719-28.277344 17.167969-38.570312 24.71875zm77.269531-50.347656c-24.921875 5.621094-50.410156 8.316406-75.957031 8.039062-25.410156.273438-50.765625-2.394531-75.5625-7.953124 1.207031-8.929688 1.652344-17.949219 1.324218-26.957032 27.097657 6.519532 54.902344 9.644532 82.773438 9.3125 30.085938.453125 60.089844-3.28125 89.148438-11.09375-5.558594 10.714844-12.90625 20.402344-21.734376 28.636719zm0 0" fill="#95a5a5"/></svg>