<svg height="512pt" viewBox="0 0 512 512.02257" width="512pt" xmlns="http://www.w3.org/2000/svg"><path d="m172.679688 379.585938c.417968 23.636718 2.304687 47.21875 5.648437 70.621093h-47.667969c3.34375-23.402343 5.230469-46.984375 5.648438-70.621093" fill="#805333"/><path d="m375.714844 379.585938c.417968 23.636718 2.304687 47.21875 5.648437 70.621093h-47.667969c3.34375-23.402343 5.230469-46.984375 5.648438-70.621093" fill="#805333"/><path d="m210.992188 441.378906h-206.566407c-2.171875-.230468-4.128906 1.3125-4.4140622 3.476563v63.667969c.2851562 2.164062 2.2421872 3.707031 4.4140622 3.476562h503.171875c2.171875.230469 4.128906-1.3125 4.414063-3.476562v-63.667969c-.285157-2.164063-2.242188-3.707031-4.414063-3.476563zm0 0" fill="#4c8056"/><path d="m512.011719 444.839844v31.851562h-512.0000002v-31.851562c.2851562-2.164063 2.2460932-3.699219 4.4140622-3.460938h503.171875c2.167969-.238281 4.128906 1.296875 4.414063 3.460938zm0 0" fill="#24ae5f"/><path d="m476.699219 211.863281c8.652343 43.519531 43.167969 104.253907-15.269531 122.789063l15.269531 17.480468s-7.058594 32.21875-100.984375 35.929688c-5.738282.261719-11.742188.351562-18.1875.351562-6.441406 0-12.445313-.089843-18.183594-.351562-20.679688-.402344-41.226562-3.367188-61.175781-8.828125-.707031-.015625-1.414063.011719-2.117188.085937-6.269531.175782-12.976562.265626-20.039062.265626s-13.769531-.089844-20.039063-.265626c-.703125-.074218-1.410156-.101562-2.117187-.085937-19.949219 5.460937-40.5 8.425781-61.175781 8.828125-5.738282.261719-11.828126.351562-18.1875.351562-6.355469 0-12.445313-.089843-18.183594-.351562-93.925782-3.710938-100.988282-35.929688-100.988282-35.929688l28.515626-32.574218-2.03125-1.765625c-1.589844 1.5-78.917969-.972657-44.136719-88.277344 30.984375-77.769531 44.136719-105.929687 8.824219-150.066406 0 0 61.796874 8.828125 70.621093 35.308593 0 0 26.484375-105.929687 88.277344-114.757812 0 0-17.65625 52.964844 35.308594 70.621094 0 0 17.65625-61.792969 105.933593-61.792969 0 0-26.484374 52.964844-8.828124 79.449219 0 0 61.792968 17.652344 97.101562-52.96875 0 0 35.3125 44.140625 17.65625 97.105468 19.394531-16.78125 45.613281-23.335937 70.621094-17.65625 0 0-35.222656 52.964844-26.484375 97.105469zm0 0" fill="#f29c1f"/><path d="m361.941406 252.644531s-3.617187 15.097657-41.3125 23.835938c-21.246094 4.40625-42.921875 6.421875-64.617187 6.003906-11.828125 0-22.246094-.441406-31.515625-1.148437h-.085938c-11.109375-.824219-22.144531-2.445313-33.015625-4.855469-37.695312-8.738281-41.3125-23.835938-41.3125-23.835938l41.222657-43.605469 18.363281-19.421874c15.203125 3.410156 30.765625 4.953124 46.34375 4.589843 15.578125.363281 31.140625-1.179687 46.34375-4.589843l18.363281 19.421874zm0 0" fill="#24ae5f"/><path d="m326.632812 175.226562s-2.207031 8.742188-24.277343 14.390626c-15.203125 3.410156-30.765625 4.953124-46.34375 4.589843-15.578125.363281-31.140625-1.179687-46.34375-4.589843-22.070313-5.648438-24.277344-14.390626-24.277344-14.390626l8.472656-9.445312 62.148438-68.679688 62.144531 68.679688zm0 0" fill="#14a085"/><path d="m276.050781 370.757812c.355469 26.597657 2.511719 53.140626 6.441407 79.449219h-52.964844c3.933594-26.308593 6.085937-52.851562 6.445312-79.449219" fill="#805333"/><path d="m388.425781 344.277344s-7.769531 30.984375-110.257812 34.957031c-.707031-.015625-1.414063.011719-2.117188.085937-6.269531.175782-12.976562.265626-20.039062.265626s-13.769531-.089844-20.039063-.265626c-.703125-.074218-1.410156-.101562-2.117187-.085937-102.488281-3.972656-110.257813-34.957031-110.257813-34.957031l67.796875-67.796875c10.871094 2.410156 21.90625 4.03125 33.015625 4.855469h.085938c9.269531.707031 19.6875 1.148437 31.515625 1.148437 21.695312.417969 43.371093-1.597656 64.617187-6.003906zm0 0" fill="#4c8056"/><path d="m233.855469 379.234375c-19.949219 5.460937-40.5 8.425781-61.175781 8.828125-5.738282.261719-11.828126.351562-18.1875.351562-6.355469 0-12.445313-.089843-18.183594-.351562-93.925782-3.710938-100.988282-35.929688-100.988282-35.929688l28.515626-32.574218 30.628906-34.957032c1.148437.351563 2.296875.707032 3.53125.972657 18.53125 4.199219 37.503906 6.125 56.496094 5.734375 8.386718 0 15.980468-.261719 22.867187-.792969l-53.761719 53.761719s7.769532 30.984375 110.257813 34.957031zm0 0" fill="#24ae5f"/><path d="m476.699219 352.132812s-7.058594 32.21875-100.984375 35.929688c-5.738282.261719-11.742188.351562-18.1875.351562-6.441406 0-12.445313-.089843-18.183594-.351562-20.679688-.402344-41.226562-3.367188-61.175781-8.828125 102.488281-3.972656 110.257812-34.957031 110.257812-34.957031l-53.761719-53.761719c6.886719.53125 14.476563.792969 22.863282.792969 18.996094.390625 37.96875-1.535156 56.496094-5.734375 1.238281-.265625 2.386718-.621094 3.53125-.972657l43.875 50.050782zm0 0" fill="#24ae5f"/><path d="m209.667969 189.617188-18.363281 19.421874c-12.160157 2.035157-24.480469 2.980469-36.8125 2.824219-14.894532.378907-29.78125-1.105469-44.3125-4.414062-19.949219-5.121094-21.890626-12.890625-21.890626-12.890625l66.203126-70.972656 39.371093 42.195312-8.472656 9.445312s2.207031 8.742188 24.277344 14.390626zm0 0" fill="#26b99a"/><path d="m423.734375 194.558594s-1.941406 7.769531-21.890625 12.890625c-14.53125 3.308593-29.417969 4.792969-44.316406 4.414062-12.328125.15625-24.648438-.789062-36.808594-2.824219l-18.363281-19.421874c22.070312-5.648438 24.277343-14.390626 24.277343-14.390626l-8.476562-9.445312 39.371094-42.195312zm0 0" fill="#26b99a"/><g fill="#14a085"><path d="m450.21875 262.972656s-2.914062 13.242188-32.664062 21.628906c-1.144532.351563-2.292969.707032-3.53125.972657-18.527344 4.199219-37.5 6.125-56.496094 5.734375-8.386719 0-15.976563-.261719-22.863282-.792969l-14.035156-14.035156c37.695313-8.738281 41.3125-23.835938 41.3125-23.835938l-41.222656-43.605469c12.160156 2.035157 24.480469 2.980469 36.808594 2.824219 14.898437.378907 29.785156-1.105469 44.316406-4.414062zm0 0"/><path d="m191.394531 276.480469-14.035156 14.035156c-6.886719.53125-14.480469.792969-22.867187.792969-18.992188.390625-37.964844-1.535156-56.496094-5.734375-1.234375-.265625-2.382813-.621094-3.53125-.972657-29.746094-8.386718-32.660156-21.628906-32.660156-21.628906l48.375-55.523437c14.53125 3.308593 29.417968 4.792969 44.3125 4.414062 12.332031.15625 24.652343-.789062 36.8125-2.824219l-41.222657 43.605469s3.617188 15.097657 41.3125 23.835938zm0 0"/></g></svg>