<svg height="512pt" viewBox="-4 0 512 512" width="512pt" xmlns="http://www.w3.org/2000/svg"><path d="m179.113281 333.753906c-7.15625 3.261719-14.960937 4.863282-22.824219 4.6875-27.59375 0-36.707031-15.621094-52.152343-25.859375l64.476562-173.734375 21.433594-61.613281v-.085937l149.523437-57.535157 77.40625 140.667969c.214844.5.542969.945312.953126 1.300781l-61.003907 164.015625c-9.914062 8.566406-22.65625 13.144532-35.753906 12.84375-22.824219 0-33.0625-10.675781-44.605469-20.132812zm0 0" fill="#e6e7e8"/><path d="m503.324219 327.59375v180.066406c0 2.398438-1.945313 4.339844-4.339844 4.339844h-494.644531c-2.398438 0-4.339844-1.941406-4.339844-4.339844v-180.066406c.136719-8.128906 5.917969-15.0625 13.886719-16.664062 28.984375-6.679688 36.792969-33.234376 72.894531-33.234376 10.796875-.277343 21.414062 2.816407 30.371094 8.851563 15.445312 10.238281 24.558594 25.859375 52.15625 25.859375 7.863281.179688 15.664062-1.421875 22.820312-4.6875 20.566406-9.457031 27.859375-30.023438 59.617188-30.023438 14.03125-.253906 27.605468 4.976563 37.835937 14.578126 11.542969 9.460937 21.785157 20.132812 44.605469 20.132812 13.097656.300781 25.84375-4.273438 35.753906-12.84375 12.496094-9.890625 22.476563-21.867188 46.601563-21.867188 36.101562 0 43.910156 26.554688 72.894531 33.234376 7.96875 1.601562 13.746094 8.535156 13.886719 16.664062zm0 0" fill="#2fa8cc"/><g fill="#b0d3f0"><path d="m208.269531 390.507812c-17.570312.066407-34.4375-6.917968-46.816406-19.394531-9.269531-9.777343-22.148437-15.316406-35.621094-15.316406-13.476562 0-26.355469 5.539063-35.625 15.316406-12.378906 12.476563-29.242187 19.460938-46.816406 19.394531-4.792969 0-8.679687-3.882812-8.679687-8.675781s3.886718-8.679687 8.679687-8.679687c13.472656 0 26.351563-5.539063 35.621094-15.316406 12.417969-12.417969 29.257812-19.394532 46.820312-19.394532 17.558594 0 34.398438 6.976563 46.816407 19.394532 9.269531 9.777343 22.148437 15.316406 35.621093 15.316406 4.792969 0 8.679688 3.886718 8.679688 8.679687s-3.886719 8.675781-8.679688 8.675781zm0 0"/><path d="m329.761719 477.289062c-17.585938.078126-34.472657-6.910156-46.859375-19.394531-9.269532-9.78125-22.148438-15.320312-35.625-15.320312-13.472656 0-26.351563 5.539062-35.621094 15.320312-12.367188 12.460938-29.214844 19.449219-46.773438 19.394531-4.792968 0-8.679687-3.886718-8.679687-8.679687s3.886719-8.675781 8.679687-8.675781c13.472657-.003906 26.351563-5.539063 35.621094-15.316406 12.417969-12.417969 29.257813-19.398438 46.820313-19.398438 17.558593 0 34.398437 6.980469 46.816406 19.398438 9.269531 9.777343 22.148437 15.3125 35.621094 15.316406 4.792969 0 8.679687 3.882812 8.679687 8.675781s-3.886718 8.679687-8.679687 8.679687zm0 0"/><path d="m459.933594 390.507812c-17.589844.078126-34.472656-6.910156-46.863282-19.394531-9.269531-9.777343-22.148437-15.316406-35.621093-15.316406-13.472657 0-26.355469 5.539063-35.625 15.316406-12.367188 12.464844-29.214844 19.449219-46.773438 19.394531-4.792969 0-8.675781-3.882812-8.675781-8.675781s3.882812-8.679687 8.675781-8.679687c13.457031-.011719 26.320313-5.550782 35.578125-15.316406 12.417969-12.417969 29.257813-19.394532 46.820313-19.394532 17.558593 0 34.402343 6.976563 46.816406 19.394532 9.28125 9.789062 22.179687 15.328124 35.667969 15.316406 4.792968 0 8.675781 3.886718 8.675781 8.679687s-3.882813 8.675781-8.675781 8.675781zm0 0"/><path d="m503.324219 121.492188c-.03125 9.574218-7.785157 17.328124-17.359375 17.355468h-67.859375l-19.441407-34.710937h87.300782c9.558594.070312 17.285156 7.800781 17.359375 17.355469zm0 0"/><path d="m192.128906 70.726562.089844.257813-2.171875 6.164063v.085937l-21.433594 61.613281h-107.867187c-9.554688-.070312-17.285156-7.800781-17.355469-17.355468.027344-9.574219 7.78125-17.328126 17.355469-17.355469h26.035156c9.554688-.070313 17.285156-7.800781 17.355469-17.355469-.011719-1.257812-.15625-2.507812-.433594-3.734375-1.75-7.945313-8.785156-13.609375-16.921875-13.625h-69.425781c-4.605469.027344-9.019531-1.820313-12.234375-5.117187-3.296875-3.214844-5.1445315-7.632813-5.121094-12.238282.0273438-9.570312 7.78125-17.324218 17.355469-17.355468h258.082031l-84.175781 34.019531zm0 0"/></g><path d="m418.105469 138.847656-58.316407-104.136718-12.671874-22.648438c-.550782-1.03125-1.398438-1.875-2.429688-2.429688l-152.558594 61.09375.089844.257813-2.171875 6.164063 149.523437-57.535157 77.40625 140.667969c.214844.5.542969.945312.953126 1.300781l3.734374-10.671875 2.429688-1.390625zm0 0" fill="#e6e7e8"/><path d="m310.84375 231.789062-21.261719 60.484376c-10.230469-9.601563-23.804687-14.832032-37.835937-14.578126-31.757813 0-39.050782 20.566407-59.617188 30.023438l36.796875-104.480469c1.476563-4.359375 4.644531-7.945312 8.785157-9.949219 4.144531-2.007812 8.917968-2.269531 13.257812-.726562l49.203125 17.097656c4.351563 1.515625 7.921875 4.699219 9.925781 8.851563 2.003906 4.148437 2.269532 8.925781.746094 13.277343zm0 0" fill="#7f8c8d"/><path d="m342.257812 141.625c-7.890624 22.617188-32.617187 34.5625-55.242187 26.683594-22.621094-7.882813-34.578125-32.609375-26.707031-55.234375 7.875-22.625 32.59375-34.589844 55.222656-26.726563 22.621094 7.910156 34.578125 32.632813 26.726562 55.277344zm0 0" fill="#7f8c8d"/><path d="m451.253906 52.066406c-.027344 9.574219-7.78125 17.328125-17.355468 17.355469h-54.671876l-19.4375-34.710937h74.109376c9.554687.070312 17.285156 7.800781 17.355468 17.355468zm0 0" fill="#b0d3f0"/><path d="m429.125 163.839844c-1.3125.679687-2.773438 1.035156-4.25 1.042968-2.703125.039063-5.269531-1.179687-6.945312-3.300781-.410157-.355469-.738282-.800781-.953126-1.300781l-77.40625-140.667969-149.523437 57.535157v.085937l-4.164063 1.5625c-1.050781.410156-2.171874.617187-3.296874.605469-3.648438.03125-6.960938-2.121094-8.417969-5.464844-.859375-2.171875-.796875-4.601562.167969-6.726562.964843-2.128907 2.75-3.769532 4.949218-4.554688l72.636719-27.945312 87.558594-33.667969c.246093-.152344.507812-.269531.78125-.347657.246093-.125.511719-.214843.78125-.261718.871093-.277344 1.777343-.4218752 2.691406-.433594 1.558594 0 3.085937.421875 4.425781 1.214844.734375.390625 1.40625.886718 1.996094 1.476562.527344.46875.964844 1.027344 1.300781 1.648438.085938.085937.085938.171875.175781.257812l16.574219 30.113282 19.089844 34.710937 19.179687 34.714844 19.089844 34.710937 7.289063 13.277344c1.132812 2.035156 1.371093 4.445312.667969 6.664062-.707032 2.21875-2.296876 4.046876-4.398438 5.050782zm0 0" fill="#464f5d"/></svg>