<svg height="512pt" viewBox="0 0 512 512" width="512pt" xmlns="http://www.w3.org/2000/svg"><path d="m512 324.414062v183.171876c0 2.4375-1.976562 4.414062-4.414062 4.414062h-503.171876c-2.4375 0-4.414062-1.976562-4.414062-4.414062v-183.171876c.140625-8.265624 6.019531-15.320312 14.125-16.949218 18.359375-4.238282 28.335938-16.332032 42.195312-24.804688 9.542969-6.058594 20.652344-9.191406 31.957032-9.003906 4.148437-.027344 8.292968.386719 12.355468 1.234375 6.636719 1.324219 12.941407 3.96875 18.539063 7.769531 15.714844 10.414063 24.984375 26.304688 53.054687 26.304688 8 .183594 15.9375-1.449219 23.214844-4.765625 20.921875-9.621094 28.339844-30.542969 60.648438-30.542969 14.269531-.257812 28.078125 5.0625 38.488281 14.828125 11.738281 9.625 22.15625 20.480469 45.371094 20.480469 13.324219.308594 26.289062-4.347656 36.371093-13.0625 10.328126-8.210938 18.980469-17.746094 35.046876-21.097656 4.070312-.773438 8.210937-1.160157 12.355468-1.148438 11.308594-.214844 22.425782 2.917969 31.957032 9.003906 13.859374 8.472656 23.835937 20.566406 42.195312 24.804688 8.105469 1.628906 13.984375 8.683594 14.125 16.949218zm0 0" fill="#2fa8cc"/><path d="m211.863281 388.414062c-17.878906.066407-35.035156-7.039062-47.625-19.730468-9.429687-9.945313-22.53125-15.582032-36.238281-15.582032s-26.808594 5.636719-36.238281 15.582032c-12.589844 12.691406-29.746094 19.796875-47.625 19.730468-4.875 0-8.828125-3.953124-8.828125-8.828124s3.953125-8.828126 8.828125-8.828126c13.707031 0 26.808593-5.632812 36.238281-15.578124 12.628906-12.632813 29.761719-19.730469 47.625-19.730469s34.996094 7.097656 47.625 19.730469c9.429688 9.945312 22.53125 15.578124 36.238281 15.578124 4.875 0 8.828125 3.953126 8.828125 8.828126s-3.953125 8.828124-8.828125 8.828124zm0 0" fill="#b0d3f0"/><path d="m335.449219 476.691406c-17.894531.078125-35.066407-7.03125-47.667969-19.730468-9.429688-9.949219-22.535156-15.582032-36.238281-15.582032-13.707031 0-26.808594 5.632813-36.238281 15.582032-12.582032 12.679687-29.71875 19.785156-47.582032 19.730468-4.875 0-8.824218-3.953125-8.824218-8.828125s3.949218-8.828125 8.824218-8.828125c13.707032 0 26.808594-5.636718 36.238282-15.582031 12.628906-12.632813 29.761718-19.730469 47.625-19.730469 17.863281 0 34.996093 7.097656 47.625 19.730469 9.429687 9.945313 22.53125 15.582031 36.238281 15.582031 4.875 0 8.828125 3.953125 8.828125 8.828125s-3.953125 8.828125-8.828125 8.828125zm0 0" fill="#b0d3f0"/><path d="m467.863281 388.414062c-17.894531.078126-35.066406-7.027343-47.671875-19.730468-9.425781-9.945313-22.53125-15.582032-36.234375-15.582032-13.707031 0-26.808593 5.636719-36.238281 15.582032-12.582031 12.679687-29.71875 19.785156-47.582031 19.730468-4.875 0-8.828125-3.953124-8.828125-8.828124s3.953125-8.828126 8.828125-8.828126c13.691406-.011718 26.777343-5.644531 36.195312-15.578124 12.628907-12.632813 29.761719-19.730469 47.625-19.730469s34.992188 7.097656 47.625 19.730469c9.4375 9.957031 22.558594 15.589843 36.28125 15.578124 4.875 0 8.828125 3.953126 8.828125 8.828126s-3.953125 8.828124-8.828125 8.828124zm0 0" fill="#b0d3f0"/><path d="m467.863281 211.863281c.046875 24.125-4.074219 48.074219-12.183593 70.796875-9.53125-6.085937-20.648438-9.21875-31.957032-9.003906-4.144531-.011719-8.285156.375-12.355468 1.148438-16.066407 3.351562-24.71875 12.886718-35.046876 21.097656-10.082031 8.714844-23.046874 13.371094-36.371093 13.0625-23.214844 0-33.632813-10.855469-45.371094-20.480469-10.410156-9.765625-24.21875-15.085937-38.488281-14.828125-32.308594 0-39.726563 20.921875-60.648438 30.542969-7.277344 3.316406-15.214844 4.949219-23.214844 4.765625-28.070312 0-37.339843-15.890625-53.054687-26.304688-5.597656-3.800781-11.902344-6.445312-18.539063-7.769531-4.0625-.847656-8.207031-1.261719-12.355468-1.234375-11.304688-.1875-22.414063 2.945312-31.957032 9.003906-8.109374-22.722656-12.230468-46.671875-12.183593-70.796875 0-117.007812 94.855469-211.863281 211.863281-211.863281s211.863281 94.855469 211.863281 211.863281zm0 0" fill="#ff5364"/><path d="m423.460938 203.035156c-1.175782-23.425781-7.347657-46.332031-18.097657-67.179687-1.238281-2.648438-2.648437-5.296875-4.148437-7.855469s-3.003906-5.03125-4.679688-7.503906c-12.71875-19.691406-29.476562-36.453125-49.167968-49.167969-2.472657-1.679687-4.945313-3.179687-7.503907-4.679687-2.5625-1.5-5.210937-2.914063-7.859375-4.148438-20.84375-10.75-43.75-16.921875-67.175781-18.097656-2.914063-.175782-5.914063-.265625-8.828125-.265625s-5.914062.089843-8.828125.265625c-23.425781 1.175781-46.332031 7.347656-67.175781 18.097656-2.648438 1.234375-5.296875 2.648438-7.859375 4.148438-2.558594 1.5-5.03125 3-7.503907 4.679687-19.691406 12.714844-36.449218 29.476563-49.167968 49.167969-1.675782 2.472656-3.179688 4.945312-4.679688 7.503906s-2.910156 5.207031-4.148437 7.855469c-10.75 20.847656-16.921875 43.753906-18.097657 67.179687-.175781 2.914063-.261718 5.914063-.261718 8.828125 0 2.910157.085937 5.914063.175781 8.828125.980469 18.59375 5.097656 36.890625 12.179687 54.113282v.085937c6.636719 1.324219 12.941407 3.96875 18.539063 7.769531 15.714844 10.414063 24.984375 26.304688 53.054687 26.304688 8 .183594 15.9375-1.449219 23.214844-4.765625 20.921875-9.621094 28.339844-30.542969 60.648438-30.542969 14.269531-.257812 28.078125 5.0625 38.488281 14.828125 11.738281 9.625 22.15625 20.480469 45.371094 20.480469 13.324219.308594 26.289062-4.347656 36.371093-13.0625 10.328126-8.210938 18.980469-17.746094 35.046876-21.097656 7.082031-17.222657 11.199218-35.519532 12.179687-54.113282.089844-2.914062.175781-5.828125.175781-8.828125 0-3.003906-.085937-5.914062-.261718-8.828125zm-167.460938 35.308594c-12.878906-.066406-23.84375-9.390625-25.980469-22.089844-2.136719-12.703125 5.179688-25.101562 17.328125-29.375 5.59375-2 11.710938-2 17.304688 0 7.703125 2.582032 13.746094 8.628906 16.328125 16.332032 2.003906 5.59375 2.003906 11.707031 0 17.300781-3.625 10.699219-13.6875 17.878906-24.980469 17.832031zm0 0" fill="#fdd7ad"/><g fill="#ff5364"><path d="m256 79.449219c-4.875 0-8.828125-3.953125-8.828125-8.828125v-26.484375c0-4.875 3.953125-8.828125 8.828125-8.828125s8.828125 3.953125 8.828125 8.828125v26.484375c0 4.875-3.953125 8.828125-8.828125 8.828125zm0 0"/><path d="m185.378906 98.375c-3.15625.003906-6.074218-1.679688-7.652344-4.414062l-13.242187-22.953126c-2.398437-4.21875-.941406-9.582031 3.261719-12.007812 4.199218-2.425781 9.574218-1.003906 12.027344 3.179688l13.242187 22.953124c1.574219 2.730469 1.578125 6.09375 0 8.824219-1.574219 2.730469-4.484375 4.414063-7.636719 4.417969zm0 0"/><path d="m133.675781 150.070312c-1.550781 0-3.074219-.40625-4.414062-1.183593l-22.949219-13.242188c-4.1875-2.453125-5.609375-7.828125-3.183594-12.027343 2.425782-4.203126 7.789063-5.660157 12.007813-3.261719l22.953125 13.242187c3.460937 1.996094 5.148437 6.070313 4.113281 9.929688s-4.53125 6.542968-8.527344 6.542968zm0 0"/><path d="m114.757812 220.691406h-26.480468c-4.875 0-8.828125-3.953125-8.828125-8.828125s3.953125-8.828125 8.828125-8.828125h26.480468c4.875 0 8.828126 3.953125 8.828126 8.828125s-3.953126 8.828125-8.828126 8.828125zm0 0"/><path d="m326.621094 98.375c-3.152344-.003906-6.0625-1.6875-7.636719-4.417969-1.578125-2.730469-1.574219-6.09375 0-8.824219l13.242187-22.953124c2.453126-4.183594 7.828126-5.605469 12.027344-3.179688 4.203125 2.425781 5.660156 7.789062 3.261719 12.007812l-13.242187 22.953126c-1.578126 2.734374-4.496094 4.417968-7.652344 4.414062zm0 0"/><path d="m378.324219 150.070312c-3.996094 0-7.492188-2.683593-8.527344-6.542968s.652344-7.933594 4.113281-9.929688l22.953125-13.242187c4.21875-2.398438 9.582031-.941407 12.007813 3.261719 2.425781 4.199218 1.003906 9.574218-3.183594 12.027343l-22.949219 13.242188c-1.339843.777343-2.863281 1.183593-4.414062 1.183593zm0 0"/><path d="m423.722656 220.691406h-26.480468c-4.875 0-8.828126-3.953125-8.828126-8.828125s3.953126-8.828125 8.828126-8.828125h26.480468c4.875 0 8.828125 3.953125 8.828125 8.828125s-3.953125 8.828125-8.828125 8.828125zm0 0"/><path d="m290.164062 203.035156c-3.175781-12.445312-12.890624-22.160156-25.335937-25.335937-5.785156-1.53125-11.871094-1.53125-17.65625 0-16.683594 4.289062-27.835937 19.992187-26.394531 37.15625 1.445312 17.167969 15.0625 30.785156 32.230468 32.226562 17.164063 1.445313 32.867188-9.707031 37.15625-26.390625 1.527344-5.789062 1.527344-11.871094 0-17.65625zm-34.164062 26.480469c-9.75 0-17.65625-7.902344-17.65625-17.652344s7.90625-17.65625 17.65625-17.65625 17.65625 7.90625 17.65625 17.65625c-.03125 9.738281-7.917969 17.625-17.65625 17.652344zm0 0"/></g><path d="m273.65625 211.863281c0 9.75-7.90625 17.652344-17.65625 17.652344s-17.65625-7.902344-17.65625-17.652344 7.90625-17.65625 17.65625-17.65625 17.65625 7.90625 17.65625 17.65625zm0 0" fill="#fdd7ad"/><path d="m256 194.207031c-4.875 0-8.828125-3.953125-8.828125-8.828125v-79.449218c0-4.875 3.953125-8.828126 8.828125-8.828126s8.828125 3.953126 8.828125 8.828126v79.449218c0 4.875-3.953125 8.828125-8.828125 8.828125zm0 0" fill="#ff5364"/><path d="m317.792969 220.691406h-35.308594c-4.878906 0-8.828125-3.953125-8.828125-8.828125s3.949219-8.828125 8.828125-8.828125h35.308594c4.875 0 8.828125 3.953125 8.828125 8.828125s-3.953125 8.828125-8.828125 8.828125zm0 0" fill="#ff5364"/></svg>