<svg height="512pt" viewBox="0 -5 512.00051 512" width="512pt" xmlns="http://www.w3.org/2000/svg"><path d="m512 416.542969-.433594.261719c-.714844-1.507813-2.238281-2.457032-3.90625-2.429688h-124.789062c76.28125-155.945312-10.066406-361.265625-122.53125-377.839844-103.703125-15.273437-108.300782 58.75-105.785156 89.46875v.175782c.3125 4.160156.832031 8.300781 1.5625 12.40625-.023438 0-.046876-.007813-.0625-.023438-.015626-.015625-.023438-.039062-.023438-.0625-3.824219-8.140625-7.042969-16.550781-9.632812-25.164062-11.976563-40.09375-19.265626-113.335938 87.90625-113.335938 156.203124 0 277.695312 143.1875 277.695312 416.542969zm0 0" fill="#67b9cc"/><path d="m512 418.625v78.277344c-.007812 1.140625-.46875 2.230468-1.28125 3.027344-.816406.800781-1.917969 1.238281-3.058594 1.222656h-494.644531c-1.140625.015625-2.238281-.421875-3.054687-1.222656-.8125-.796876-1.277344-1.886719-1.28125-3.027344v-78.277344c.003906-1.140625.46875-2.230469 1.28125-3.03125.816406-.796875 1.914062-1.238281 3.054687-1.21875h494.644531c1.667969-.027344 3.191406.921875 3.90625 2.429688.285156.5625.433594 1.1875.433594 1.820312zm0 0" fill="#285680"/><path d="m382.871094 414.375h-122.53125v-35.667969c26.175781-20.867187 47-47.667969 60.746094-78.1875 34.710937-77.320312 28.289062-156.117187-34.710938-205.0625-47.816406-37.226562-116.375-7.722656-129.738281 23.777344v.089844c-1.007813 2.117187-1.707031 4.367187-2.082031 6.679687-2.515626-30.71875 2.082031-104.742187 105.785156-89.46875 112.464844 16.574219 198.8125 221.894532 122.53125 377.839844zm0 0" fill="#9fc9d3"/><path d="m260.339844 197.519531v219.378907h-225.628906v-219.464844l112.816406-84.609375zm0 0" fill="#e6e7e8"/><path d="m86.78125 330.117188h17.355469c9.585937 0 17.355469 7.773437 17.355469 17.359374v69.421876h-52.066407v-69.421876c0-9.585937 7.769531-17.359374 17.355469-17.359374zm0 0" fill="#d25627"/><g fill="#2fa8cc"><path d="m173.558594 330.117188h43.390625c4.792969 0 8.679687 3.886718 8.679687 8.679687v34.710937c0 4.792969-3.886718 8.679688-8.679687 8.679688h-43.390625c-4.792969 0-8.675782-3.886719-8.675782-8.679688v-34.710937c0-4.792969 3.882813-8.679687 8.675782-8.679687zm0 0"/><path d="m173.558594 243.339844h43.390625c4.792969 0 8.679687 3.882812 8.679687 8.675781v34.714844c0 4.792969-3.886718 8.675781-8.679687 8.675781h-43.390625c-4.792969 0-8.675782-3.882812-8.675782-8.675781v-34.714844c0-4.792969 3.882813-8.675781 8.675782-8.675781zm0 0"/><path d="m78.101562 243.339844h43.390626c4.792968 0 8.679687 3.882812 8.679687 8.675781v34.714844c0 4.792969-3.886719 8.675781-8.679687 8.675781h-43.390626c-4.792968 0-8.675781-3.882812-8.675781-8.675781v-34.714844c0-4.792969 3.882813-8.675781 8.675781-8.675781zm0 0"/></g><path d="m112.8125 217.304688h-52.066406c-4.792969 0-8.679688-3.882813-8.679688-8.675782 0-4.792968 3.886719-8.679687 8.679688-8.679687h52.066406c4.792969 0 8.679688 3.886719 8.679688 8.679687 0 4.792969-3.886719 8.675782-8.679688 8.675782zm0 0" fill="#7f8c8d"/><path d="m216.949219 217.304688h-69.421875c-4.792969 0-8.679688-3.882813-8.679688-8.675782 0-4.792968 3.886719-8.679687 8.679688-8.679687h69.421875c4.792969 0 8.679687 3.886719 8.679687 8.679687 0 4.792969-3.886718 8.675782-8.679687 8.675782zm0 0" fill="#7f8c8d"/><path d="m286.730469 225.984375c-1.878907 0-3.707031-.609375-5.207031-1.738281l-133.996094-100.585938-133.640625 100.230469c-3.835938 2.875-9.273438 2.101563-12.152344-1.734375-2.875-3.835938-2.097656-9.273438 1.738281-12.148438l138.847656-104.136718c3.085938-2.3125 7.328126-2.3125 10.414063 0l139.210937 104.492187c2.988282 2.242188 4.207032 6.140625 3.023438 9.6875-1.179688 3.542969-4.496094 5.933594-8.230469 5.933594zm0 0" fill="#d25627"/><path d="m512 418.625v39.136719h-503.320312v-39.136719c.003906-1.140625.46875-2.230469 1.28125-3.03125.816406-.796875 1.914062-1.238281 3.054687-1.21875h494.644531c1.667969-.027344 3.191406.921875 3.90625 2.429688.285156.5625.433594 1.1875.433594 1.820312zm0 0" fill="#4482c3"/></svg>