<svg height="504pt" viewBox="0 0 504 504.44587" width="504pt" xmlns="http://www.w3.org/2000/svg"><path d="m17.011719 334.335938h470.03125v152.484374h-470.03125zm0 0" fill="#af8066"/><path d="m491.238281 327.34375h-478.425781c-6.953125 0-12.589844 5.636719-12.589844 12.589844v151.082031c0 6.953125 5.636719 12.589844 12.589844 12.589844h303.582031c1.238281.550781 2.582031.839843 3.9375.839843 1.453125-.019531 2.894531-.300781 4.246094-.839843h166.660156c6.953125 0 12.589844-5.636719 12.589844-12.589844v-151.082031c0-6.953125-5.636719-12.589844-12.589844-12.589844zm-129.878906 122.542969-1.570313 1.570312c-1.285156 1.292969-2.59375 2.601563-3.917968 3.921875l-1.152344 1.140625c-1.675781 1.679688-3.355469 3.308594-5.035156 4.953125l-1.226563 1.191406c-1.582031 1.527344-3.15625 3.035157-4.722656 4.523438l-.597656.570312c-1.679688 1.59375-3.355469 3.132813-4.960938 4.625l-1.226562 1.132813c-1.492188 1.359375-2.945313 2.667969-4.335938 3.902344l-.4375.394531c-1.46875 1.292969-2.847656 2.460938-4.199219 3.558594-.351562.304687-.703124.589844-1.046874.839844-1.257813 1.03125-2.453126 1.980468-3.527344 2.777343l-.125.09375-.050782-.074219-.207031-.3125c-.839843-1.257812-1.679687-2.566406-2.636719-3.902343-.3125-.4375-.628906-.882813-.957031-1.324219-.773437-1.066406-1.5625-2.140625-2.382812-3.226562l-.976563-1.28125c-1.105468-1.4375-2.230468-2.871094-3.355468-4.265626l-.300782-.378906c-1.070312-1.3125-2.121094-2.59375-3.15625-3.835937l-1.023437-1.222657c-.800781-.949218-1.5625-1.847656-2.300781-2.710937l-.914063-1.058594c-.949219-1.097656-1.847656-2.132812-2.628906-3.023437v-30.398438h46.886719l16.902343 16.886719-.527343.546875c-1.394532 1.410156-2.828126 2.859375-4.289063 4.386719zm-148.78125 36.933593-45.550781-30.367187-5.464844-21.882813 30.878906-6.175781 39.660156 15.863281c.933594.359376 1.925782.550782 2.929688.5625h.183594c.777344 0 1.550781-.109374 2.300781-.328124l48.085937-13.691407v30.839844c0 2.066406.761719 4.058594 2.140626 5.597656 1.332031 1.492188 2.699218 3.054688 4.070312 4.632813l1.675781 1.980468c.800781.941407 1.597657 1.871094 2.375 2.8125.632813.746094 1.226563 1.476563 1.839844 2.222657l2.066406 2.519531c.601563.746094 1.164063 1.460938 1.734375 2.191406.574219.730469 1.277344 1.609375 1.875 2.382813l.621094.839843zm134.460937-75.542968h-47.839843l-9.929688-19.890625 46.851563-13.429688 22.058594 5.515625zm-144.191406 3.191406 5.925782-29.628906 53.074218-10.644532 7.8125 15.648438 11.214844 22.417969 1.046875 2.113281-46.261719 13.210938zm248.707032 30.125-69.800782-7.757812-19.175781-19.1875 13.941406-34.855469 46.414063-38.660157h16.460937l14.671875 36.695313c1 2.507813 3.144532 4.382813 5.765625 5.035156l27.210938 6.789063v30.664062l-17.726563 10.625zm35.488281-69.246094-18.984375-4.742187-10.585938-26.472657h29.570313zm-90.332031-31.214844-29.273438 24.398438-29.445312-7.363281c-1.425782-.355469-2.917969-.328125-4.332032.078125l-52.039062 14.855468-7.554688-15.109374-7.972656-15.894532-.46875-.964844zm-149.871094 0 7.25 14.503907-49.671875 9.953125-24.457031-24.457032zm-139.960938 31.113282c1.574219-1.574219 2.457032-3.707032 2.457032-5.933594v-25.179688h46.886718l36.328125 36.332032-4.574219 22.90625-1.839843 9.167968-16.929688 3.355469-16.9375 3.359375-15.476562-6.882812-46.457031-20.640625zm-14.328125-31.113282v21.703126l-21.429687 21.429687-54.109375 20.292969v-63.425782zm-11.867187 142.6875h-63.671875v-61.332031l58.484375-21.929687 38.273437 17.003906 22.964844 10.207031zm23.734375 0 42.335937-42.335937 4.804688 19.195313c.503906 2.023437 1.746094 3.785156 3.480468 4.941406l27.320313 18.199218zm242.816406 0c.292969-.269531.601563-.5625.90625-.839843l2.625-2.417969 2.015625-1.863281 2.746094-2.585938 1.921875-1.828125 3.046875-2.9375 1.5-1.453125c3.046875-2.980469 5.976562-5.875 8.679687-8.59375l.707031-.722656c1.097657-1.097656 2.164063-2.171875 3.164063-3.199219l.777344-.789062 2.710937-2.777344.640625-.652344 2.148438-2.21875.292969-.300781 65.328124 7.261719 5.175782 25.917968zm121.511719 0-2.949219-14.707031-2.9375-14.710937 19.308594-11.609375 4.875-2.90625v43.933593zm0 0" fill="#805333"/><path d="m218.453125 142.6875c0 41.722656-33.820313 75.542969-75.542969 75.542969-41.71875 0-75.539062-33.820313-75.539062-75.542969 0-41.71875 33.820312-75.539062 75.539062-75.539062 41.722656 0 75.542969 33.820312 75.542969 75.539062zm0 0" fill="#e57e25"/><g fill="#f0c419"><path d="m142.910156 41.96875c-4.632812 0-8.390625-3.757812-8.390625-8.394531v-25.179688c0-4.636719 3.757813-8.394531 8.390625-8.394531 4.636719 0 8.394532 3.757812 8.394532 8.394531v25.179688c0 4.636719-3.757813 8.394531-8.394532 8.394531zm0 0"/><path d="m88.355469 56.589844c-3.003907 0-5.777344-1.597656-7.277344-4.199219l-12.589844-21.820313c-1.523437-2.601562-1.539062-5.816406-.039062-8.425781 1.5-2.613281 4.285156-4.21875 7.296875-4.214843 3.011718.007812 5.789062 1.628906 7.277344 4.246093l12.589843 21.824219c1.5 2.59375 1.5 5.792969.003907 8.386719-1.496094 2.597656-4.265626 4.199219-7.261719 4.203125zm0 0"/><path d="m48.402344 96.523438c-1.476563.003906-2.921875-.382813-4.199219-1.125l-21.820313-12.589844c-2.621093-1.488282-4.238281-4.265625-4.246093-7.277344-.007813-3.011719 1.601562-5.796875 4.210937-7.296875 2.613282-1.5 5.828125-1.484375 8.425782.039063l21.824218 12.589843c3.289063 1.898438 4.894532 5.769531 3.910156 9.441407-.984374 3.667968-4.308593 6.21875-8.105468 6.21875zm0 0"/><path d="m33.796875 151.082031h-25.179687c-4.636719 0-8.394532-3.757812-8.394532-8.394531 0-4.632812 3.757813-8.390625 8.394532-8.390625h25.179687c4.636719 0 8.394531 3.757813 8.394531 8.390625 0 4.636719-3.757812 8.394531-8.394531 8.394531zm0 0"/><path d="m26.621094 218.230469c-3.800782 0-7.125-2.550781-8.109375-6.222657-.980469-3.667968.621093-7.539062 3.910156-9.441406l21.824219-12.589844c2.597656-1.523437 5.8125-1.535156 8.425781-.035156s4.21875 4.28125 4.214844 7.296875c-.007813 3.011719-1.628907 5.789063-4.246094 7.277344l-21.824219 12.589844c-1.273437.734375-2.722656 1.125-4.195312 1.125zm0 0"/><path d="m75.765625 267.382812c-3-.003906-5.765625-1.605468-7.265625-4.203124-1.496094-2.59375-1.496094-5.792969.003906-8.386719l12.589844-21.824219c2.332031-3.980469 7.441406-5.332031 11.4375-3.023438 3.996094 2.304688 5.378906 7.40625 3.101562 11.417969l-12.589843 21.820313c-1.503907 2.601562-4.277344 4.199218-7.277344 4.199218zm0 0"/><path d="m142.910156 285.378906c-4.632812 0-8.390625-3.757812-8.390625-8.394531v-25.179687c0-4.636719 3.757813-8.394532 8.390625-8.394532 4.636719 0 8.394532 3.757813 8.394532 8.394532v25.179687c0 4.636719-3.757813 8.394531-8.394532 8.394531zm0 0"/><path d="m210.058594 267.382812c-3 0-5.777344-1.597656-7.277344-4.199218l-12.589844-21.820313c-2.28125-4.011719-.894531-9.113281 3.101563-11.417969 3.996093-2.308593 9.101562-.957031 11.4375 3.023438l12.589843 21.824219c1.496094 2.59375 1.5 5.792969 0 8.386719-1.496093 2.597656-4.265624 4.199218-7.261718 4.203124zm0 0"/><path d="m259.203125 218.230469c-1.472656 0-2.921875-.390625-4.195313-1.125l-21.824218-12.589844c-3.980469-2.335937-5.332032-7.441406-3.023438-11.4375 2.304688-3.996094 7.40625-5.382813 11.417969-3.101563l21.820313 12.589844c3.289062 1.902344 4.894531 5.773438 3.910156 9.441406-.980469 3.671876-4.308594 6.222657-8.105469 6.222657zm0 0"/><path d="m277.207031 151.082031h-25.179687c-4.636719 0-8.394532-3.757812-8.394532-8.394531 0-4.632812 3.757813-8.390625 8.394532-8.390625h25.179687c4.636719 0 8.394531 3.757813 8.394531 8.390625 0 4.636719-3.757812 8.394531-8.394531 8.394531zm0 0"/><path d="m237.421875 96.523438c-3.800781 0-7.125-2.550782-8.105469-6.21875-.984375-3.671876.617188-7.542969 3.910156-9.441407l21.820313-12.589843c2.597656-1.523438 5.816406-1.539063 8.425781-.039063 2.613282 1.5 4.21875 4.285156 4.214844 7.296875-.007812 3.011719-1.628906 5.789062-4.246094 7.277344l-21.824218 12.589844c-1.273438.742187-2.722657 1.128906-4.195313 1.125zm0 0"/><path d="m197.46875 56.589844c-2.996094-.003906-5.765625-1.605469-7.261719-4.203125-1.496093-2.59375-1.496093-5.792969 0-8.386719l12.589844-21.824219c1.492187-2.617187 4.269531-4.238281 7.28125-4.246093 3.011719-.003907 5.796875 1.601562 7.296875 4.214843 1.5 2.609375 1.484375 5.824219-.039062 8.425781l-12.589844 21.820313c-1.5 2.601563-4.277344 4.199219-7.277344 4.199219zm0 0"/></g></svg>