<svg height="512pt" viewBox="0 -4 512.00063 512" width="512pt" xmlns="http://www.w3.org/2000/svg"><path d="m190.308594 200.433594c-16.230469 17.09375-40.960938 43.214844-77.0625 82.007812-1.558594 1.664063-3.707032 2.660156-5.988282 2.773438l-15.707031.871094c-3.734375.1875-7.179687-2.003907-8.589843-5.46875l-12.929688-33.0625c-1.292969-3.328126-.433594-7.105469 2.167969-9.546876 34.714843-32.453124 59.183593-55.539062 75.933593-71.503906 2.171876 7.617188 6.265626 14.550782 11.890626 20.132813 8.085937 8.121093 18.847656 13.023437 30.285156 13.796875zm0 0" fill="#805333"/><path d="m77.40625 416.601562h-68.121094c1.390625-36.796874 2.515625-59.703124 3.382813-86.691406-.023438-2.957031 1.460937-5.722656 3.9375-7.339844 2.476562-1.613281 5.605469-1.859374 8.300781-.644531l22.300781 10.414063c3 1.3125 6.480469.84375 9.027344-1.214844l3.902344-3.300781c2.59375-2.101563 6.160156-2.53125 9.175781-1.105469s4.949219 4.453125 4.972656 7.789062c.867188 25.078126 1.90625 47.382813 3.121094 82.09375zm0 0" fill="#805333"/><path d="m335.402344 189.671875c-27.179688 27.164063-71.226563 27.164063-98.40625 0-2.15625-2.140625-4.15625-4.429687-5.988282-6.855469-1.042968 1.300782-2.082031 2.515625-3.296874 3.820313-18.742188 18.574219-48.949219 18.574219-67.6875 0-5.625-5.582031-9.71875-12.515625-11.890626-20.132813-4.878906-16.027344-.957031-33.4375 10.328126-45.820312-3.976563-2.09375-7.582032-4.816406-10.675782-8.070313-16.652344-16.613281-18.765625-42.859375-4.992187-61.925781 13.773437-19.0625 39.359375-25.296875 60.359375-14.703125 1.96875-8.300781 6.238281-15.882813 12.320312-21.867187 15.3125-15.4375 39.125-18.574219 57.914063-7.628907 18.785156 10.949219 27.800781 33.207031 21.925781 54.144531-.960938 3.53125-2.328125 6.9375-4.078125 10.152344v.085938c1.300781.085937 2.601563.261718 3.816406.347656.730469.066406 1.457031.183594 2.167969.347656 1.8125.253906 3.605469.601563 5.382812 1.039063.5.074219.992188.191406 1.472657.347656 24.0625 6.46875 42.851562 25.265625 49.3125 49.328125 6.457031 24.0625-.394531 49.746094-17.984375 67.390625zm0 0" fill="#4c8056"/><path d="m373.152344 433.957031h-52.066406v-139.800781c1.855468-.964844 3.601562-2.128906 5.207031-3.472656l.34375-.261719h.089843l5.726563-4.945313 13.972656-11.800781c.046875 0 .085938-.039062.085938-.085937l52.675781-44.519532 78.101562 66.039063v138.847656zm0 0" fill="#e6e7e8"/><path d="m425.21875 390.566406v26.035156h-52.066406v-26.035156c.027344-9.574218 7.78125-17.328125 17.355468-17.355468h17.355469c9.574219.027343 17.328125 7.78125 17.355469 17.355468zm0 0" fill="#b19046"/><path d="m425.21875 312.464844c0 14.378906-11.652344 26.035156-26.03125 26.035156s-26.035156-11.65625-26.035156-26.035156 11.65625-26.03125 26.035156-26.03125 26.03125 11.652344 26.03125 26.03125zm0 0" fill="#2fa8cc"/><path d="m509.917969 326.785156c-1.644531 1.933594-4.058594 3.042969-6.597657 3.035156-2.066406-.003906-4.0625-.742187-5.640624-2.082031l-20.390626-17.269531-78.101562-66.039062-52.675781 44.519531c0 .046875-.039063.085937-.085938.085937l-13.972656 11.800782-5.726563 4.949218h-.089843l-.34375.257813c-10.847657 9.039062-26.640625 8.894531-37.316407-.347657-5.652343-4.984374-9.085937-12.015624-9.542968-19.539062-.457032-7.523438 2.101562-14.917969 7.113281-20.550781 2.007813-2.503907 5.234375-3.695313 8.386719-3.09375 3.152344.597656 5.71875 2.886719 6.667968 5.953125.953126 3.0625.132813 6.402344-2.125 8.679687-1.9375 2.15625-2.910156 5.007813-2.691406 7.898438.226563 4.222656 2.835938 7.949219 6.722656 9.605469 3.890626 1.660156 8.386719.964843 11.589844-1.796876l11.453125-9.71875 26.988281-22.820312c-3.195312-1.394531-6.109374-3.367188-8.589843-5.816406-10.933594-11.160156-10.933594-29.015625 0-40.179688l12.0625-12.148437c3.402343-3.402344 8.917969-3.402344 12.324219 0 3.402343 3.402343 3.402343 8.921875 0 12.324219l-12.0625 12.0625c-3.175782 3.148437-4.140626 7.894531-2.453126 12.035156 1.691407 4.136718 5.703126 6.851562 10.175782 6.882812 2.351562.023438 4.640625-.738281 6.507812-2.171875l19.089844-14.316406.175781-.261719h.171875l.085938-.085937c.089844-.085938.175781-.085938.261718-.175781 4.824219-3.753907 11.613282-3.644532 16.316407.261718l101.355469 85.824219c1.75 1.496094 2.835937 3.625 3.011718 5.921875.179688 2.292969-.558594 4.566406-2.054687 6.316406zm0 0" fill="#b19046"/><path d="m416.542969 30.433594c0 16.773437-13.597657 30.371094-30.375 30.371094h-89.292969c-.527344-.015626-1.046875-.074219-1.5625-.171876 1.558594-5.585937 2.089844-11.410156 1.5625-17.183593h89.292969c7.191406 0 13.019531-5.828125 13.019531-13.015625 0-7.191406-5.828125-13.019532-13.019531-13.019532h-13.015625c-4.792969 0-8.679688-3.882812-8.679688-8.675781s3.886719-8.6796872 8.679688-8.6796872h13.015625c8.070312-.0390626 15.816406 3.1484372 21.523437 8.8515622 5.703125 5.707032 8.890625 13.453125 8.851563 21.523438zm0 0" fill="#b0d3f0"/><path d="m481.628906 105.277344h-91.121094c-4.792968 0-8.675781-3.882813-8.675781-8.675782 0-4.792968 3.882813-8.679687 8.675781-8.679687h91.121094c7.1875 0 13.015625-5.828125 13.015625-13.015625s-5.828125-13.015625-13.015625-13.015625h-13.019531c-4.792969 0-8.675781-3.886719-8.675781-8.679687 0-4.792969 3.882812-8.675782 8.675781-8.675782h13.019531c16.773438 0 30.371094 13.597656 30.371094 30.371094s-13.597656 30.371094-30.371094 30.371094zm0 0" fill="#b0d3f0"/><path d="m503.320312 420.851562v78.277344c-.003906 1.140625-.46875 2.230469-1.28125 3.03125-.816406.796875-1.914062 1.238282-3.054687 1.21875h-494.644531c-1.140625.019532-2.242188-.421875-3.054688-1.21875-.816406-.800781-1.2773435-1.890625-1.285156-3.03125v-78.277344c.0078125-1.140624.46875-2.230468 1.285156-3.027343.8125-.800781 1.914063-1.238281 3.054688-1.222657h494.644531c1.140625-.015624 2.238281.421876 3.054687 1.222657.8125.796875 1.277344 1.886719 1.28125 3.027343zm0 0" fill="#4c8056"/><path d="m503.320312 420.851562v39.140626h-503.320312v-39.140626c.0078125-1.140624.46875-2.230468 1.285156-3.027343.8125-.800781 1.914063-1.238281 3.054688-1.222657h494.644531c1.140625-.015624 2.238281.421876 3.054687 1.222657.8125.796875 1.277344 1.886719 1.28125 3.027343zm0 0" fill="#24ae5f"/></svg>