<svg height="512pt" viewBox="0 -4 512.00003 512" width="512pt" xmlns="http://www.w3.org/2000/svg"><path d="m230.398438 136.53125h51.203124v76.800781h-51.203124zm0 0" fill="#bdc3c7"/><path d="m8.535156 426.664062h494.929688v68.265626h-494.929688zm0 0" fill="#cb8252"/><path d="m499.199219 418.132812h-486.398438c-7.046875 0-12.769531 5.691407-12.800781 12.738282v59.851562c.03125 7.046875 5.753906 12.742188 12.800781 12.742188h486.398438c7.046875 0 12.769531-5.695313 12.800781-12.742188v-59.851562c-.03125-7.046875-5.753906-12.738282-12.800781-12.738282zm-482.132813 68.265626v-17.066407h145.066406c4.714844 0 8.535157-3.820312 8.535157-8.535156 0-4.710937-3.820313-8.53125-8.535157-8.53125h-145.066406v-17.066406h477.867188v17.066406h-179.199219c-4.714844 0-8.535156 3.820313-8.535156 8.53125 0 4.714844 3.820312 8.535156 8.535156 8.535156h179.199219v17.066407zm0 0" fill="#805333"/><path d="m273.066406 452.265625h-68.265625c-4.714843 0-8.535156 3.820313-8.535156 8.53125 0 4.714844 3.820313 8.535156 8.535156 8.535156h68.265625c4.714844 0 8.535156-3.820312 8.535156-8.535156 0-4.710937-3.820312-8.53125-8.535156-8.53125zm0 0" fill="#805333"/><path d="m409.601562 81.066406c0 25.917969-21.015624 46.933594-46.933593 46.933594-1.570313 0-3.136719-.085938-4.695313-.257812.226563 1.5.371094 3.007812.425782 4.523437.015624 10.1875-4.027344 19.960937-11.230469 27.167969-7.203125 7.203125-16.980469 11.246094-27.167969 11.230468h-128c-30.632812 0-55.464844-24.832031-55.464844-55.464843.011719-4.402344.554688-8.785157 1.621094-13.058594-15.871094-1.421875-27.8125-15.082031-27.105469-31 .707031-15.921875 13.816407-28.464844 29.75-28.476563 1.085938.03125 2.171875.144532 3.242188.34375 1.929687-19.535156 18.34375-34.4375 37.972656-34.476562 8.871094.015625 17.453125 3.160156 24.234375 8.875 3.148438-9.433594 11.5-16.171875 21.386719-17.253906 9.882812-1.082032 19.496093 3.691406 24.609375 12.21875 6.648437-2.542969 13.703125-3.84375 20.820312-3.839844 11.582032-.011719 22.914063 3.371094 32.597656 9.726562 7.414063-8.640624 19.335938-11.902343 30.117188-8.238281 10.78125 3.660157 18.25 13.511719 18.863281 24.878907 2.644531-.511719 5.328125-.769532 8.023438-.765626 25.917969 0 46.933593 21.011719 46.933593 46.933594zm0 0" fill="#d1d4d1"/><g fill="#a5a5a4"><path d="m213.332031 119.464844c-4.710937 0-8.53125 3.820312-8.53125 8.535156 0 4.710938 3.820313 8.53125 8.53125 8.53125 4.714844 0 8.535157 3.820312 8.535157 8.535156v59.730469c0 4.714844 3.820312 8.535156 8.53125 8.535156 4.714843 0 8.535156-3.820312 8.535156-8.535156v-59.730469c0-14.140625-11.460938-25.601562-25.601563-25.601562zm0 0"/><path d="m298.667969 119.464844c-14.140625 0-25.601563 11.460937-25.601563 25.601562v59.730469c0 4.714844 3.820313 8.535156 8.535156 8.535156 4.710938 0 8.53125-3.820312 8.53125-8.535156v-59.730469c0-4.714844 3.820313-8.535156 8.535157-8.535156 4.710937 0 8.53125-3.820312 8.53125-8.53125 0-4.714844-3.820313-8.535156-8.53125-8.535156zm0 0"/><path d="m196.265625 68.265625c-14.136719 0-25.597656 11.460937-25.597656 25.597656 0 4.714844 3.820312 8.535157 8.53125 8.535157 4.714843 0 8.535156-3.820313 8.535156-8.535157 0-4.710937 3.820313-8.53125 8.53125-8.53125 4.714844 0 8.535156-3.820312 8.535156-8.535156 0-4.710937-3.820312-8.53125-8.535156-8.53125zm0 0"/><path d="m247.464844 51.199219c-4.710938 0-8.53125 3.820312-8.53125 8.53125 0 4.714843 3.820312 8.535156 8.53125 8.535156 4.714844 0 8.535156 3.820313 8.535156 8.53125 0 4.714844 3.820312 8.535156 8.535156 8.535156 4.710938 0 8.53125-3.820312 8.53125-8.535156 0-14.136719-11.460937-25.597656-25.601562-25.597656zm0 0"/><path d="m350.90625 70.765625c-10.128906-9.679687-26.082031-9.679687-36.214844 0-2.15625 2.15625-2.996094 5.300781-2.207031 8.246094.792969 2.945312 3.09375 5.242187 6.039063 6.03125 2.945312.789062 6.089843-.054688 8.242187-2.210938 3.375-3.226562 8.691406-3.226562 12.066406 0 2.15625 2.15625 5.300781 3 8.246094 2.210938 2.945313-.789063 5.246094-3.085938 6.035156-6.03125.789063-2.945313-.050781-6.089844-2.207031-8.246094zm0 0"/></g><path d="m486.398438 426.664062s-141.25-83.089843-194.183594-216.472656c-1.265625-3.242187-4.378906-5.378906-7.859375-5.394531h-56.710938c-3.480469.015625-6.59375 2.152344-7.859375 5.394531-52.933594 133.382813-194.183594 216.472656-194.183594 216.472656zm0 0" fill="#805333"/><path d="m187.734375 401.066406c-3.363281.003906-6.417969-1.96875-7.792969-5.039062-1.378906-3.066406-.828125-6.660156 1.410156-9.171875 18.6875-20.859375 35.53125-43.300781 50.34375-67.070313 1.53125-2.738281 4.441407-4.414062 7.578126-4.367187 3.136718.046875 5.996093 1.8125 7.441406 4.597656 1.449218 2.78125 1.25 6.132813-.511719 8.730469-15.320313 24.605468-32.738281 47.847656-52.050781 69.460937-1.632813 1.828125-3.96875 2.871094-6.417969 2.859375zm0 0" fill="#cb8252"/><path d="m324.265625 401.066406c-2.4375 0-4.761719-1.039062-6.382813-2.859375-19.316406-21.613281-36.730468-44.855469-52.050781-69.460937-1.765625-2.597656-1.960937-5.949219-.511719-8.730469 1.445313-2.785156 4.300782-4.550781 7.4375-4.597656 3.136719-.046875 6.046876 1.628906 7.578126 4.367187 14.816406 23.769532 31.660156 46.210938 50.347656 67.070313 2.242187 2.519531 2.792968 6.117187 1.402344 9.1875-1.386719 3.070312-4.449219 5.039062-7.820313 5.023437zm0 0" fill="#cb8252"/><path d="m384.777344 401.066406c-2.128906.003906-4.183594-.796875-5.753906-2.238281-46.96875-41.507813-85.542969-91.632813-113.636719-147.667969-1.761719-4.191406.070312-9.027344 4.164062-11 4.097657-1.972656 9.023438-.382812 11.195313 3.609375 27.152344 54.082031 64.417968 102.457031 109.78125 142.507813 2.566406 2.378906 3.417968 6.085937 2.148437 9.347656s-4.398437 5.417969-7.898437 5.441406zm0 0" fill="#cb8252"/><path d="m127.222656 401.066406c-3.523437.003906-6.691406-2.160156-7.964844-5.445312-1.277343-3.289063-.398437-7.019532 2.207032-9.394532 45.363281-40.035156 82.632812-88.390624 109.789062-142.457031 1.222656-2.902343 3.945313-4.898437 7.082032-5.1875 3.136718-.289062 6.179687 1.175781 7.910156 3.804688 1.734375 2.632812 1.875 6.003906.367187 8.773437-28.09375 56.035156-66.667969 106.167969-113.636719 147.675782-1.574218 1.433593-3.625 2.230468-5.753906 2.230468zm0 0" fill="#cb8252"/></svg>