<svg height="512pt" viewBox="0 -8 512 511" width="512pt" xmlns="http://www.w3.org/2000/svg"><path d="m399.1875 434.394531h-392.679688v-269.015625l38.445313-24.558594c3.136719-1.863281 7.011719-1.960937 10.238281-.261718l41.480469 22.042968c3.257813 1.644532 7.132813 1.480469 10.242187-.433593l32.714844-20.480469 1.910156-1.734375zm0 0" fill="#547580"/><path d="m141.539062 139.960938-1.910156 1.734374-32.714844 20.480469c-3.109374 1.914063-6.984374 2.078125-10.242187.433594l-41.480469-22.042969c-3.226562-1.699218-7.101562-1.597656-10.238281.261719l-38.445313 24.550781v-157.410156c0-7.117188 10.414063-10.152344 15.535157-4.601562l45.210937 51.722656s1.128906 1.386718 3.382813 3.816406c.382812.457031.789062.890625 1.21875 1.304688zm0 0" fill="#b0d3f0"/><path d="m498.722656 361.933594c0 35.234375-31.152344 63.78125-69.597656 63.78125h-41.046875l-257.648437-294.441406-69.683594-79.75c32.792968 33.183593 77.113281 52.453124 123.746094 53.800781 8.40625.199219 16.8125-.46875 25.082031-1.992188 30.023437-5.382812 40.785156 10.324219 49.808593 24.730469v.085938h.089844c.421875-.113282.863282-.144532 1.300782-.085938.457031-.070312.921874-.101562 1.386718-.085938 31.96875-.921874 60.320313 20.402344 68.296875 51.371094 1.957031-.246094 3.929688-.363281 5.902344-.34375 26.992187-1.144531 49.820313 19.78125 51.023437 46.773438-.007812 4.136718-.59375 8.257812-1.734374 12.234375 22.691406 7.09375 38.332031 27.867187 38.878906 51.632812.015625 2.945313-.277344 5.882813-.867188 8.765625 1.820313-.171875 3.644532-.257812 5.464844-.257812 38.445312 0 69.597656 28.546875 69.597656 63.78125zm0 0" fill="#d1d4d1"/><path d="m503.320312 460.429688v30.371093c0 2.398438-1.941406 4.339844-4.335937 4.339844h-494.730469c-2.347656-.003906-4.24999975-1.90625-4.253906-4.253906v-30.457031zm0 0" fill="#5e5f62"/><g fill="#a5a5a4"><path d="m503.320312 429.96875v30.460938h-503.320312v-34.714844h499.070312c2.347657.007812 4.246094 1.90625 4.25 4.253906zm0 0"/><path d="m437.804688 289.566406c-.496094-24.632812-15.136719-46.773437-37.613282-56.875.3125-2.300781.46875-4.617187.46875-6.941406-1.226562-31.535156-27.554687-56.234375-59.105468-55.453125-11.269532-30.542969-40.335938-50.863281-72.894532-50.957031-10.695312-20.226563-33.9375-30.394532-56.050781-24.515625-7.714844 1.371093-15.550781 1.992187-23.386719 1.851562-45.917968-1.488281-89.363281-21.152343-120.78125-54.671875l-1.167968-1.328125c-.429688-.410156-.902344-.769531-1.40625-1.078125-.375-.339844-.78125-.648437-1.207032-.917968-.628906-.273438-1.285156-.46875-1.960937-.582032-.398438-.136718-.804688-.246094-1.214844-.320312-.699219-.015625-1.398437.050781-2.082031.199218-.410156.027344-.816406.078126-1.214844.15625-.652344.253907-1.269531.582032-1.839844.980469-.386718.167969-.757812.363281-1.113281.589844l-.070313.085937s-.09375 0-.136718.078126c-.425782.445312-.796875.933593-1.109375 1.457031-.324219.363281-.617188.75-.871094 1.164062-.238281.558594-.410156 1.140625-.519531 1.734375-.171875.476563-.304688.964844-.390625 1.460938 0 .554687.054687 1.109375.15625 1.65625.015625.550781.085937 1.101562.207031 1.640625.214844.511719.476562 1.003906.78125 1.464843.207031.511719.46875 1 .773438 1.460938.191406.234375.921874 1.074219 1.910156 2.183594l330.203125 377.363281c.070312.078125.167969.09375.234375.171875.582031.566406 1.234375 1.046875 1.945312 1.433594.300782.230468.613282.441406.9375.632812 1.132813.230469 2.261719.464844 3.394532.703125h41.046874c43.164063 0 78.273438-32.507812 78.273438-72.460937 0-38.695313-32.914062-70.394532-74.195312-72.367188zm-4.078126 127.472656h-37.144531l-279.230469-319.132812c22.503907 10.21875 46.867188 15.707031 71.578126 16.125 8.964843.160156 17.925781-.550781 26.753906-2.128906 17.300781-3.132813 26.265625 1.816406 32.871094 9.410156-2.605469.570312-5.144532 1.222656-7.65625 2.039062-4.054688 1.316407-6.550782 5.390626-5.886719 9.605469.664062 4.214844 4.296875 7.320313 8.5625 7.324219.910156-.003906 1.8125-.144531 2.679687-.425781 6.605469-2.125 13.5-3.207031 20.4375-3.203125h.070313c24.546875-.554688 47.039062 13.648437 57.089843 36.050781-5.988281 1.632813-11.691406 4.175781-16.910156 7.53125-2.640625 1.667969-4.179687 4.621094-4.03125 7.738281.144532 3.117188 1.953125 5.917969 4.734375 7.332032 2.78125 1.414062 6.105469 1.226562 8.710938-.492188 7.351562-4.699219 15.902343-7.171875 24.628906-7.113281h.058594c22.148437-1.046875 41.003906 15.941406 42.261719 38.078125 0 .683594-.101563 1.371094-.144532 2.0625-2.324218-.28125-4.664062-.425782-7.003906-.433594-4.792969 0-8.679688 3.886719-8.679688 8.679688 0 4.792968 3.886719 8.679687 8.679688 8.679687 3.804688.023437 7.59375.511719 11.28125 1.449219 19.105469 5.96875 32.339844 23.378906 32.976562 43.386718 0 .304688-.078124.554688-.089843.867188-4.222657.691406-8.390625 1.703125-12.460938 3.03125-4.058593 1.320312-6.554687 5.394531-5.886719 9.609375.667969 4.214844 4.300782 7.320313 8.570313 7.320313.910156 0 1.8125-.144532 2.679687-.425782 6.3125-2.007812 12.886719-3.0625 19.507813-3.132812.320313 0 .652344-.042969.980469-.042969 33.59375 0 60.921875 24.714844 60.921875 55.105469s-27.320313 55.105468-60.910157 55.105468zm0 0"/></g></svg>