<svg height="512pt" viewBox="0 -5 512.00667 512" width="512pt" xmlns="http://www.w3.org/2000/svg"><path d="m251.320312 364.027344v78.101562h-251.3124995v-433.464844c.0078125-4.117187 2.9101565-7.664062 6.9492185-8.484374 4.039063-.820313 8.097657 1.308593 9.710938 5.101562l60.746093 166.441406c.457032 1.152344 1.367188 2.0625 2.515626 2.519532l108.734374 41.828124c1.425782.53125 2.453126 1.792969 2.691407 3.296876l16.75 91.898437c.105469.730469.40625 1.421875.867187 1.996094zm0 0" fill="#805333"/><path d="m476.949219 196.71875v245.410156h-225.628907v-245.5l19.785157-14.839844 19.09375-14.316406 73.933593-55.453125zm0 0" fill="#e6e7e8"/><path d="m303.371094 329.316406h17.355468c9.585938 0 17.355469 7.769532 17.355469 17.355469v95.457031h-52.066406v-95.457031c0-9.585937 7.769531-17.355469 17.355469-17.355469zm0 0" fill="#d25627"/><path d="m503.328125 429.554688v34.269531h-503.3203125v-39.050781h499.0703125c2.488281.160156 4.382813 2.292968 4.25 4.78125zm0 0" fill="#24ae5f"/><path d="m197.691406 73.316406-29.332031 35.753906c-1.65625 2.09375-4.183594 3.3125-6.855469 3.296876h-51.808594c-3.605468.035156-6.871093-2.132813-8.242187-5.46875l-14.058594-34.277344c-.933593-2.308594-.804687-4.910156.347657-7.113282l13.449218-26.46875c1.5625-2.957031 4.640625-4.796874 7.984375-4.773437h68.816407c3.324218-.042969 6.386718 1.808594 7.894531 4.773437l12.757812 24.992188c1.582031 3.003906 1.203125 6.664062-.953125 9.285156zm0 0" fill="#af8066"/><path d="m303.648438 146.558594-47.035157 35.230468h-17.703125c-3.484375.046876-6.699218-1.863281-8.328125-4.945312l-12.671875-24.558594c-1.894531-3.804687-.84375-8.417968 2.515625-11.019531l34.714844-26.902344c3.40625-2.6875 8.21875-2.6875 11.625 0l33.5 25.945313c1.960937 1.511718 3.191406 3.78125 3.382813 6.25zm0 0" fill="#805333"/><path d="m312.152344 50.234375-5.726563 21.171875c-1.191406 3.773438-4.722656 6.316406-8.679687 6.25h-16.226563c-2.339843.015625-4.605469-.851562-6.335937-2.429688l-20.914063-19.265624c-2.070312-1.882813-2.992187-4.722657-2.429687-7.464844l5.382812-24.90625c.777344-2.808594 2.84375-5.078125 5.5625-6.125 2.722656-1.042969 5.777344-.734375 8.234375.832031l37.402344 22.996094c3.089844 1.824219 4.609375 5.460937 3.730469 8.941406zm0 0" fill="#af8066"/><path d="m503.328125 463.824219v34.175781c.128906 2.535156-1.800781 4.707031-4.339844 4.875h-494.730469c-2.488281-.15625-4.382812-2.289062-4.2499995-4.78125v-34.269531zm0 0" fill="#4c8056"/><g fill="#2fa8cc"><path d="m390.152344 329.316406h43.386718c4.792969 0 8.679688 3.886719 8.679688 8.679688v34.710937c0 4.792969-3.886719 8.675781-8.679688 8.675781h-43.386718c-4.792969 0-8.679688-3.882812-8.679688-8.675781v-34.710937c0-4.792969 3.886719-8.679688 8.679688-8.679688zm0 0"/><path d="m390.152344 242.535156h43.386718c4.792969 0 8.679688 3.886719 8.679688 8.679688v34.710937c0 4.792969-3.886719 8.679688-8.679688 8.679688h-43.386718c-4.792969 0-8.679688-3.886719-8.679688-8.679688v-34.710937c0-4.792969 3.886719-8.679688 8.679688-8.679688zm0 0"/><path d="m294.691406 242.535156h43.390625c4.792969 0 8.679688 3.886719 8.679688 8.679688v34.710937c0 4.792969-3.886719 8.679688-8.679688 8.679688h-43.390625c-4.792968 0-8.675781-3.886719-8.675781-8.679688v-34.710937c0-4.792969 3.882813-8.679688 8.675781-8.679688zm0 0"/></g><path d="m329.40625 216.503906h-52.070312c-4.792969 0-8.675782-3.886718-8.675782-8.679687s3.882813-8.675781 8.675782-8.675781h52.070312c4.792969 0 8.675781 3.882812 8.675781 8.675781s-3.882812 8.679687-8.675781 8.679687zm0 0" fill="#7f8c8d"/><path d="m433.539062 216.503906h-69.421874c-4.792969 0-8.679688-3.886718-8.679688-8.679687s3.886719-8.675781 8.679688-8.675781h69.421874c4.792969 0 8.679688 3.882812 8.679688 8.675781s-3.886719 8.679687-8.679688 8.679687zm0 0" fill="#7f8c8d"/><path d="m510.269531 221.710938c-1.648437 2.171874-4.214843 3.453124-6.941406 3.46875-1.882813.023437-3.714844-.585938-5.207031-1.734376l-21.171875-15.878906-27.945313-21.003906-84.871094-63.695312-97.277343 72.980468-15.535157 11.628906-20.828124 15.621094c-2.480469 1.859375-5.761719 2.257813-8.613282 1.039063-2.851562-1.21875-4.835937-3.863281-5.207031-6.941407-.371094-3.078124.925781-6.121093 3.40625-7.980468l36.535156-27.425782 47.035157-35.230468 55.277343-41.480469c3.078125-2.34375 7.339844-2.34375 10.414063 0l139.195312 104.480469c1.839844 1.382812 3.058594 3.4375 3.382813 5.71875.328125 2.277344-.265625 4.589844-1.648438 6.433594zm0 0" fill="#d25627"/></svg>