<svg height="512pt" viewBox="0 0 512.01957 512" width="512pt" xmlns="http://www.w3.org/2000/svg"><path d="m432.558594 106.347656v-.441406c0-34.128906-27.664063-61.792969-61.792969-61.792969-7.390625-.003906-14.71875 1.339844-21.628906 3.96875-26.949219-31.089843-71.804688-39.4375-108.136719-20.125-24.757812-26.445312-63.160156-35.078125-96.859375-21.777343-33.695313 13.304687-55.84375 45.84375-55.859375 82.070312-48.753906 0-88.2734375 39.523438-88.2734375 88.273438 0 48.753906 39.5195315 88.277343 88.2734375 88.277343 0 34.128907 27.667969 61.792969 61.792969 61.792969 25.070312 0 40.253906-5.824219 51.203125-15.449219 8.988281 17.167969 25.515625 29.121094 44.632812 32.277344 19.121094 3.160156 38.613282-2.84375 52.644532-16.210937 18.898437 23.089843 50.273437 31.796874 78.367187 21.753906 28.09375-10.046875 46.832031-36.671875 46.808594-66.507813 47.039062.003907 85.820312-36.875 88.175781-83.855469 2.355469-46.984374-32.542969-87.558593-79.347656-92.253906zm0 0" fill="#d1d4d1"/><path d="m105.9375 194.179688c0 48.753906 39.523438 88.277343 88.277344 88.277343-.019532 9.996094 2.402344 19.84375 7.0625 28.6875-10.949219 9.625-26.132813 15.449219-51.203125 15.449219-34.125 0-61.792969-27.664062-61.792969-61.792969-48.753906 0-88.2734375-39.523437-88.2734375-88.277343 0-48.75 39.5195315-88.273438 88.2734375-88.273438.015625-36.226562 22.164062-68.765625 55.859375-82.070312 33.699219-13.300782 72.101563-4.667969 96.859375 21.777343-28.792969 15.351563-46.78125 45.320313-46.785156 77.949219-48.753906 0-88.277344 39.519531-88.277344 88.273438zm0 0" fill="#a5a5a4"/><g fill="#464f5d"><path d="m220.695312 255.972656c-34.125 0-61.792968-27.664062-61.792968-61.792968 0-34.125 27.667968-61.792969 61.792968-61.792969 10.890626-.027344 21.585938 2.867187 30.976563 8.378906 4.199219 2.480469 5.589844 7.894531 3.109375 12.09375-2.484375 4.195313-7.898438 5.589844-12.09375 3.105469-6.660156-3.929688-14.257812-5.980469-21.992188-5.921875-24.375 0-44.136718 19.761719-44.136718 44.136719 0 24.378906 19.761718 44.140624 44.136718 44.140624 7.734376.054688 15.332032-1.992187 21.992188-5.925781 4.195312-2.480469 9.609375-1.089843 12.09375 3.109375 2.480469 4.195313 1.089844 9.609375-3.109375 12.09375-9.390625 5.507813-20.085937 8.402344-30.976563 8.375zm0 0"/><path d="m308.972656 255.972656c-19.5 0-35.3125-15.808594-35.3125-35.308594v-52.964843c0-19.503907 15.8125-35.3125 35.3125-35.3125s35.308594 15.808593 35.308594 35.3125v52.964843c0 19.5-15.808594 35.308594-35.308594 35.308594zm0-105.929687c-9.75 0-17.65625 7.902343-17.65625 17.65625v52.964843c0 9.75 7.90625 17.65625 17.65625 17.65625s17.65625-7.90625 17.65625-17.65625v-52.964843c0-9.753907-7.90625-17.65625-17.65625-17.65625zm0 0"/><path d="m450.214844 255.972656h-79.449219c-3.9375 0-7.398437-2.609375-8.484375-6.394531s.464844-7.832031 3.804688-9.917969c26.808593-16.761718 66.472656-48.429687 66.472656-63.136718.160156-7.070313-2.582032-13.898438-7.582032-18.898438s-11.828124-7.742188-18.902343-7.582031c-14.625 0-26.480469 11.855469-26.480469 26.480469 0 4.878906-3.953125 8.828124-8.828125 8.828124s-8.828125-3.949218-8.828125-8.828124c.03125-24.363282 19.773438-44.105469 44.136719-44.136719 11.746093-.128907 23.046875 4.480469 31.355469 12.785156 8.304687 8.304687 12.914062 19.609375 12.785156 31.351563 0 20.226562-28.550782 45.289062-50.875 61.796874h50.875c4.875 0 8.828125 3.949219 8.828125 8.824219s-3.953125 8.828125-8.828125 8.828125zm0 0"/></g><path d="m512.007812 437.390625v34.859375h-511.9999995v-39.726562h507.6718755c2.53125.164062 4.460937 2.332031 4.328124 4.867187zm0 0" fill="#24ae5f"/><path d="m512.007812 472.25v34.761719c.128907 2.582031-1.835937 4.792969-4.414062 4.960937h-503.261719c-2.53125-.160156-4.460937-2.328125-4.3242185-4.863281v-34.859375zm0 0" fill="#4c8056"/></svg>