<svg height="512pt" viewBox="0 0 512.00665 512" width="512pt" xmlns="http://www.w3.org/2000/svg"><path d="m173.566406 433.898438h-132.253906c-32.289062-41.230469-31.894531-99.277344.957031-140.0625.433594-.519532.867188-1.128907 1.300781-1.648438-30.054687-27.726562-41.941406-70.015625-30.734374-109.339844 11.207031-39.328125 43.601562-68.996094 83.757812-76.714844 6.390625-46.882812 41.390625-84.777343 87.621094-94.867187 46.226562-10.085937 93.832031 9.78125 119.171875 49.742187.050781 0 .089843.039063.089843.085938 31.191407-14.925781 68.140626-10.90625 95.398438 10.371094 27.253906 21.28125 40.117188 56.152344 33.207031 90.03125v.089844c33.230469 11 58.683594 37.992187 67.726563 71.808593 9.039062 33.8125.445312 69.90625-22.859375 96.023438 13.113281 33.839843 11.890625 71.558593-3.386719 104.480469h-143.792969" fill="#a5a5a4"/><g fill="#5e5f62"><path d="m182.242188 138.847656c-45.507813.054688-82.386719 36.933594-82.4375 82.441406 0 4.792969 3.882812 8.679688 8.675781 8.679688s8.679687-3.886719 8.679687-8.679688c.039063-35.929687 29.15625-65.046874 65.082032-65.085937 4.792968 0 8.679687-3.882813 8.679687-8.675781 0-4.792969-3.886719-8.679688-8.679687-8.679688zm0 0"/><path d="m306.050781 159.796875c-20.902343-6.445313-43.519531-4.257813-62.800781 6.074219-2.785156 1.433594-4.582031 4.253906-4.703125 7.386718-.117187 3.128907 1.457031 6.078126 4.125 7.722657 2.667969 1.640625 6.011719 1.714843 8.753906.199219 31.714844-16.902344 71.128907-4.898438 88.035157 26.816406 2.253906 4.230468 7.511718 5.835937 11.742187 3.582031 4.234375-2.253906 5.835937-7.507813 3.585937-11.742187-10.25-19.316407-27.796874-33.730469-48.738281-40.039063zm0 0"/><path d="m386.417969 246.828125c-4.074219-2.53125-9.425781-1.28125-11.957031 2.792969-2.53125 4.074218-1.28125 9.429687 2.792968 11.960937 30.480469 19.015625 39.824219 59.113281 20.890625 89.640625-1.636719 2.636719-1.746093 5.945313-.28125 8.679688 1.464844 2.734375 4.273438 4.484375 7.375 4.582031 3.101563.101563 6.019531-1.460937 7.65625-4.097656 24.007813-38.675781 12.164063-89.488281-26.476562-113.558594zm0 0"/><path d="m512.007812 260.339844c.023438-45.847656-27.742187-87.136719-70.214843-104.40625 3.597656-28.445313-5.1875-57.066406-24.125-78.59375-18.941407-21.53125-46.207031-33.890625-74.882813-33.949219-11.007812.023437-21.933594 1.902344-32.316406 5.554687-.316406.019532-.632812.0625-.945312.128907-.867188.296875-1.648438.710937-2.492188 1.035156-.136719.058594-.285156.09375-.433594.15625-28.414062-39.304687-77.503906-57.917969-124.832031-47.332031-47.332031 10.585937-83.816406 48.332031-92.785156 95.996094-40.417969 9.976562-72.492188 40.683593-84.222657 80.628906-11.734374 39.945312-1.359374 83.117187 27.246094 113.367187-15.121094 20.796875-23.285156 45.839844-23.320312 71.550781-.085938 31.40625 12.085937 61.609376 33.933594 84.175782 2.152343 2.230468 5.335937 3.144531 8.34375 2.394531 3.011718-.75 5.394531-3.046875 6.25-6.03125.855468-2.980469.054687-6.195313-2.097657-8.425781-18.726562-19.328125-29.15625-45.203125-29.074219-72.113282.101563-35.511718 18.199219-68.550781 48.070313-87.753906 4.042969-2.582031 5.226563-7.957031 2.644531-12-2.582031-4.046875-7.957031-5.230468-12-2.648437-7.761718 5.011719-14.925781 10.886719-21.359375 17.511719-24.3125-26.628907-32.328125-64.324219-20.953125-98.542969s40.363282-59.613281 75.78125-66.390625h.054688c10.171875-1.953125 20.585937-2.328125 30.875-1.109375 4.746094.539062 9.03125-2.855469 9.597656-7.597657.5625-4.742187-2.8125-9.046874-7.550781-9.636718-7.875-.902344-15.824219-1.015625-23.726563-.339844 9.667969-38.679688 40.640625-68.40625 79.6875-76.46875 39.046875-8.066406 79.261719 6.957031 103.460938 38.644531-6.382813 3.910157-12.3125 8.523438-17.675782 13.753907-2.265624 2.160156-3.191406 5.371093-2.425781 8.40625.765625 3.035156 3.105469 5.421874 6.125 6.246093 3.015625.824219 6.246094-.039062 8.449219-2.261719 6.371094-6.210937 13.695312-11.363281 21.695312-15.253906.15625-.070312.320313-.0625.46875-.132812 11.074219-5.375 23.222657-8.164063 35.527344-8.15625 45.511719.054687 82.390625 36.933594 82.441406 82.441406 0 2.507812-.148437 4.9375-.355468 7.359375-8.414063-1.984375-17.03125-3-25.679688-3.019531-4.792968 0-8.675781 3.882812-8.675781 8.675781s3.882813 8.679687 8.675781 8.679687c10.214844.007813 20.363282 1.65625 30.054688 4.886719l.09375.050781c28.199218 9.289063 50.433594 31.222657 60.117187 59.289063 9.679688 28.066406 5.691407 59.042969-10.78125 83.742187-2.539062-4.847656-5.363281-9.535156-8.460937-14.042968-2.757813-3.84375-8.082032-4.773438-11.976563-2.089844-3.894531 2.679688-4.925781 7.988281-2.316406 11.929688 5.226563 7.582031 9.570313 15.734374 12.945313 24.300781.070312.164062.191406.292969.269531.449219 13.082031 34.398437 10.335937 72.816406-7.503907 105.003906-1.542968 2.714844-1.507812 6.050781.09375 8.734375 1.601563 2.679687 4.519532 4.292969 7.644532 4.226562 3.121094-.070312 5.964844-1.8125 7.445312-4.558593 11.710938-21.226563 17.84375-45.074219 17.835938-69.3125-.015625-15.757813-2.65625-31.40625-7.8125-46.296876 16.277344-20.027343 25.164062-45.046874 25.167968-70.855468zm0 0"/></g><path d="m225.632812 459.933594h-52.066406v-143.1875l78.101563-65.085938 78.101562 65.085938v143.1875h-52.066406" fill="#d1d4d1"/><path d="m362.484375 335.316406c-1.644531 1.996094-4.097656 3.140625-6.679687 3.125-2.027344-.015625-3.984376-.71875-5.554688-1.996094l-20.480469-17.09375-78.101562-65.085937-78.101563 65.085937-20.480468 17.09375c-1.570313 1.277344-3.53125 1.980469-5.554688 1.996094-2.582031.015625-5.035156-1.128906-6.679688-3.125-3.027343-3.703125-2.523437-9.148437 1.125-12.234375l104.136719-86.78125c.28125-.160156.570313-.304687.867188-.433593.445312-.34375.941406-.609376 1.476562-.78125.492188-.25 1.019531-.425782 1.5625-.519532 1.085938-.230468 2.210938-.230468 3.296875 0 .542969.09375 1.070313.269532 1.5625.519532.53125.171874 1.03125.4375 1.476563.78125.257812.175781.605469.261718.867187.433593l104.132813 86.78125c3.652343 3.085938 4.15625 8.53125 1.128906 12.234375zm0 0" fill="#df4d60"/><path d="m277.703125 399.1875v43.390625h-52.070313v-43.390625c.03125-9.574219 7.785157-17.328125 17.355469-17.355469h17.355469c9.574219.027344 17.328125 7.78125 17.359375 17.355469zm0 0" fill="#df4d60"/><path d="m277.703125 321.085938c0 14.378906-11.65625 26.035156-26.035156 26.035156-14.378907 0-26.035157-11.65625-26.035157-26.035156 0-14.378907 11.65625-26.035157 26.035157-26.035157 14.378906 0 26.035156 11.65625 26.035156 26.035157zm0 0" fill="#2fa8cc"/><path d="m503.328125 438.671875v34.277344h-503.3203125v-39.050781h499.0703125c2.480469.164062 4.375 2.289062 4.25 4.773437zm0 0" fill="#24ae5f"/><path d="m503.328125 472.949219v34.175781c.128906 2.535156-1.800781 4.707031-4.339844 4.875h-494.730469c-2.488281-.15625-4.382812-2.289062-4.2499995-4.78125v-34.269531zm0 0" fill="#4c8056"/></svg>