<svg height="512pt" viewBox="0 -4 512.04498 512" width="512pt" xmlns="http://www.w3.org/2000/svg"><path d="m503.511719 170.6875c0 28.277344-22.921875 51.199219-51.199219 51.199219h-392.535156c-28.277344 0-51.199219-22.921875-51.199219-51.199219s22.921875-51.199219 51.199219-51.199219c-.027344-32.816406 17.097656-63.261719 45.160156-80.273437 28.058594-17.015625 62.972656-18.125 92.058594-2.925782 18.707031-22.550781 48.625-32.476562 77.101562-25.582031 28.476563 6.890625 50.542969 29.398438 56.871094 58.007813h.085938c21.097656-11.207032 46.210937-11.9375 67.925781-1.984375 21.714843 9.953125 37.554687 29.460937 42.835937 52.757812h10.496094c28.277344 0 51.199219 22.921875 51.199219 51.199219zm0 0" fill="#a5a5a4"/><path d="m110.976562 277.183594v17.410156c.023438 3-1.40625 5.828125-3.839843 7.59375l-17.066407 12.03125c-2.792968 2.046875-6.59375 2.046875-9.386718 0l-17.066406-12.03125c-2.429688-1.765625-3.859376-4.59375-3.839844-7.59375v-17.410156c-.019532-3.003906 1.410156-5.832032 3.839844-7.59375l17.066406-12.03125c2.792968-2.050782 6.59375-2.050782 9.386718 0l17.066407 12.03125c2.433593 1.761718 3.863281 4.589844 3.839843 7.59375zm0 0" fill="#7f8c8d"/><path d="m196.3125 277.183594v17.410156c.019531 3-1.410156 5.828125-3.839844 7.59375l-17.066406 12.03125c-2.792969 2.046875-6.59375 2.046875-9.386719 0l-17.066406-12.03125c-2.433594-1.765625-3.863281-4.59375-3.839844-7.59375v-17.410156c-.023437-3.003906 1.40625-5.832032 3.839844-7.59375l17.066406-12.03125c2.792969-2.050782 6.59375-2.050782 9.386719 0l17.066406 12.03125c2.429688 1.761718 3.859375 4.589844 3.839844 7.59375zm0 0" fill="#5e5f62"/><path d="m153.644531 353.984375v17.40625c.023438 3.003906-1.410156 5.832031-3.839843 7.597656l-17.066407 12.03125c-2.792969 2.046875-6.59375 2.046875-9.386719 0l-17.066406-12.03125c-2.429687-1.765625-3.859375-4.59375-3.839844-7.597656v-17.40625c-.019531-3.003906 1.410157-5.832031 3.839844-7.59375l17.066406-12.03125c2.792969-2.050781 6.59375-2.050781 9.386719 0l17.066407 12.03125c2.429687 1.761719 3.863281 4.589844 3.839843 7.59375zm0 0" fill="#7f8c8d"/><path d="m68.3125 353.984375v17.40625c.019531 3.003906-1.410156 5.832031-3.839844 7.597656l-17.066406 12.03125c-2.792969 2.046875-6.59375 2.046875-9.386719 0l-17.066406-12.03125c-2.433594-1.765625-3.863281-4.59375-3.839844-7.597656v-17.40625c-.023437-3.003906 1.40625-5.832031 3.839844-7.59375l17.066406-12.03125c2.792969-2.050781 6.59375-2.050781 9.386719 0l17.066406 12.03125c2.429688 1.761719 3.859375 4.589844 3.839844 7.59375zm0 0" fill="#a5a5a4"/><path d="m494.976562 353.984375v17.40625c.023438 3.003906-1.40625 5.832031-3.839843 7.597656l-17.066407 12.03125c-2.792968 2.046875-6.59375 2.046875-9.386718 0l-17.066406-12.03125c-2.429688-1.765625-3.859376-4.59375-3.839844-7.597656v-17.40625c-.019532-3.003906 1.410156-5.832031 3.839844-7.59375l17.066406-12.03125c2.792968-2.050781 6.59375-2.050781 9.386718 0l17.066407 12.03125c2.433593 1.761719 3.863281 4.589844 3.839843 7.59375zm0 0" fill="#7f8c8d"/><path d="m238.976562 353.984375v17.40625c.023438 3.003906-1.40625 5.832031-3.839843 7.597656l-17.066407 12.03125c-2.792968 2.046875-6.59375 2.046875-9.386718 0l-17.066406-12.03125c-2.429688-1.765625-3.859376-4.59375-3.839844-7.597656v-17.40625c-.019532-3.003906 1.410156-5.832031 3.839844-7.59375l17.066406-12.03125c2.792968-2.050781 6.59375-2.050781 9.386718 0l17.066407 12.03125c2.433593 1.761719 3.863281 4.589844 3.839843 7.59375zm0 0" fill="#a5a5a4"/><path d="m324.3125 353.984375v17.40625c.019531 3.003906-1.410156 5.832031-3.839844 7.597656l-17.066406 12.03125c-2.792969 2.046875-6.59375 2.046875-9.386719 0l-17.066406-12.03125c-2.433594-1.765625-3.863281-4.59375-3.839844-7.597656v-17.40625c-.023437-3.003906 1.40625-5.832031 3.839844-7.59375l17.066406-12.03125c2.792969-2.050781 6.59375-2.050781 9.386719 0l17.066406 12.03125c2.429688 1.761719 3.859375 4.589844 3.839844 7.59375zm0 0" fill="#5e5f62"/><path d="m409.644531 353.984375v17.40625c.023438 3.003906-1.410156 5.832031-3.839843 7.597656l-17.066407 12.03125c-2.792969 2.046875-6.59375 2.046875-9.386719 0l-17.066406-12.03125c-2.429687-1.765625-3.859375-4.59375-3.839844-7.597656v-17.40625c-.019531-3.003906 1.410157-5.832031 3.839844-7.59375l17.066406-12.03125c2.792969-2.050781 6.59375-2.050781 9.386719 0l17.066407 12.03125c2.429687 1.761719 3.863281 4.589844 3.839843 7.59375zm0 0" fill="#a5a5a4"/><path d="m281.644531 277.183594v17.410156c.023438 3-1.410156 5.828125-3.839843 7.59375l-17.066407 12.03125c-2.792969 2.046875-6.59375 2.046875-9.386719 0l-17.066406-12.03125c-2.429687-1.765625-3.859375-4.59375-3.839844-7.59375v-17.410156c-.019531-3.003906 1.410157-5.832032 3.839844-7.59375l17.066406-12.03125c2.792969-2.050782 6.59375-2.050782 9.386719 0l17.066407 12.03125c2.429687 1.761718 3.863281 4.589844 3.839843 7.59375zm0 0" fill="#7f8c8d"/><path d="m366.976562 277.183594v17.410156c.023438 3-1.40625 5.828125-3.839843 7.59375l-17.066407 12.03125c-2.792968 2.046875-6.59375 2.046875-9.386718 0l-17.066406-12.03125c-2.429688-1.765625-3.859376-4.59375-3.839844-7.59375v-17.410156c-.019532-3.003906 1.410156-5.832032 3.839844-7.59375l17.066406-12.03125c2.792968-2.050782 6.59375-2.050782 9.386718 0l17.066407 12.03125c2.433593 1.761718 3.863281 4.589844 3.839843 7.59375zm0 0" fill="#a5a5a4"/><path d="m452.3125 277.183594v17.410156c.019531 3-1.410156 5.828125-3.839844 7.59375l-17.066406 12.03125c-2.792969 2.046875-6.59375 2.046875-9.386719 0l-17.066406-12.03125c-2.433594-1.765625-3.863281-4.59375-3.839844-7.59375v-17.410156c-.023437-3.003906 1.40625-5.832032 3.839844-7.59375l17.066406-12.03125c2.792969-2.050782 6.59375-2.050782 9.386719 0l17.066406 12.03125c2.429688 1.761718 3.859375 4.589844 3.839844 7.59375zm0 0" fill="#5e5f62"/><path d="m503.511719 431.382812v33.707032h-494.933594v-38.402344h490.753906c2.441407.160156 4.300781 2.25 4.179688 4.695312zm0 0" fill="#a5a5a4"/><g fill="#5e5f62"><path d="m503.511719 465.089844v33.601562c.125 2.496094-1.773438 4.632813-4.265625 4.796875h-486.488282c-2.445312-.15625-4.3125-2.253906-4.179687-4.703125v-33.695312zm0 0"/><path d="m452.3125 110.953125h-3.96875c-7.042969-22.457031-23.058594-41-44.253906-51.238281-21.191406-10.242188-45.671875-11.265625-67.644532-2.828125-9.828124-27.800781-33.316406-48.550781-62.117187-54.878907-28.800781-6.324218-58.828125 2.675782-79.398437 23.800782-12.996094-5.777344-27.0625-8.75-41.285157-8.71875-53.4375.0625-97.867187 41.15625-102.09375 94.429687-31.109375 4.300781-53.574219 31.960938-51.40625 63.292969 2.167969 31.328125 28.226563 55.632812 59.632813 55.609375h392.535156c32.988281 0 59.734375-26.742187 59.734375-59.734375 0-32.988281-26.746094-59.734375-59.734375-59.734375zm0 102.402344h-392.535156c-17.929688-.011719-33.9375-11.230469-40.066406-28.082031-6.128907-16.847657-1.070313-35.734376 12.660156-47.261719 13.730468-11.527344 33.207031-13.242188 48.742187-4.289063 4.074219 2.359375 9.292969.96875 11.65625-3.105468 1.132813-1.960938 1.445313-4.289063.863281-6.476563-.582031-2.1875-2.011718-4.054687-3.972656-5.191406-6.464844-3.710938-13.570312-6.175781-20.949218-7.261719 4.074218-43.882812 40.863281-77.464844 84.933593-77.53125 10.371094-.011719 20.65625 1.890625 30.335938 5.613281-3.445313 5.375-6.265625 11.125-8.414063 17.136719-1.058594 2.882812-.488281 6.113281 1.5 8.457031 1.984375 2.34375 5.078125 3.441407 8.097656 2.871094 3.015626-.570313 5.496094-2.722656 6.488282-5.628906 2.589844-7.3125 6.410156-14.128907 11.289062-20.15625.09375-.109375.113282-.257813.195313-.367188.085937-.109375.292969-.203125.410156-.351562 16.652344-20.007813 43.234375-28.804688 68.535156-22.679688s44.917969 26.105469 50.574219 51.515625l.050781.109375c1.058594 4.824219 1.597657 9.742188 1.605469 14.679688 0 4.710937 3.820312 8.53125 8.53125 8.53125 4.714844 0 8.535156-3.820313 8.535156-8.53125-.019531-3.886719-.304687-7.765625-.855468-11.613281 17.457031-7.453126 37.238281-7.261719 54.546874.53125 17.308594 7.792968 30.566407 22.476562 36.554688 40.488281-3.164062 1.132812-6.230469 2.535156-9.164062 4.1875-3.3125 1.941406-4.925782 5.859375-3.933594 9.570312.992187 3.710938 4.34375 6.300781 8.183594 6.328125 1.5.003906 2.972656-.394531 4.265624-1.152344 15.535157-8.929687 34.996094-7.199218 48.710938 4.328126 13.71875 11.527343 18.773438 30.398437 12.652344 47.238281-6.121094 16.839843-22.109375 28.0625-40.027344 28.09375zm0 0"/></g></svg>