<svg height="512pt" viewBox="0 -40 512 512" width="512pt" xmlns="http://www.w3.org/2000/svg"><path d="m507.585938 291.308594h4.414062l-15.714844-129.851563-18.535156-153.601562c-.535156-4.4375-4.269531-7.792969-8.742188-7.855469h-426.015624c-4.472657.0625-8.207032 3.417969-8.742188 7.855469l-18.535156 153.601562-15.714844 129.851563h4.414062c-1.160156-.015625-2.28125.433594-3.109374 1.246094-.828126.8125-1.2968755 1.921874-1.304688 3.082031v132.589843c.0078125 1.160157.476562 2.269532 1.304688 3.082032.828124.8125 1.949218 1.257812 3.109374 1.242187h503.171876c1.160156.015625 2.28125-.429687 3.109374-1.242187.828126-.8125 1.296876-1.921875 1.304688-3.082032v-132.589843c-.007812-1.160157-.476562-2.269531-1.304688-3.082031-.828124-.8125-1.949218-1.261719-3.109374-1.246094zm0 0" fill="#71c285"/><path d="m512 295.636719v39.8125h-512v-39.8125c.0078125-1.160157.476562-2.269531 1.304688-3.082031.828124-.8125 1.949218-1.261719 3.109374-1.246094h503.171876c1.160156-.015625 2.28125.433594 3.109374 1.246094.828126.8125 1.296876 1.921874 1.304688 3.082031zm0 0" fill="#4c8056"/><path d="m512 388.414062v39.8125c-.007812 1.160157-.476562 2.269532-1.304688 3.082032-.828124.8125-1.949218 1.257812-3.109374 1.242187h-503.171876c-1.160156.015625-2.28125-.429687-3.109374-1.242187-.828126-.8125-1.2968755-1.921875-1.304688-3.082032v-39.8125zm0 0" fill="#4c8056"/><path d="m465.65625 155.101562-41.933594-27.894531v-17.390625c0-7.3125-5.925781-13.242187-13.238281-13.242187h-27.015625l-41.664062-23.835938c-.875-.617187-1.824219-1.125-2.824219-1.5-.355469-.089843-.707031-.265625-1.058594-.351562-2.019531-.523438-4.125-.613281-6.179687-.265625l-39.109376 7.855468-31.246093-15.535156c-3.597657-1.664062-7.757813-1.601562-11.300781.175782l-30.71875 15.359374-39.550782-7.945312c-1.914062-.257812-3.867187-.136719-5.738281.355469-.351563.085937-.703125.261719-1.058594.351562-1 .375-1.949219.882813-2.824219 1.5l-41.664062 23.835938h-27.015625c-7.3125 0-13.238281 5.929687-13.238281 13.242187v17.390625l-41.933594 27.894531c-3.179688 2.136719-5.277344 5.550782-5.738281 9.355469-.175781 1.082031-.175781 2.183594 0 3.265625.605469 4.886719 3.867187 9.035156 8.476562 10.769532l54.640625 20.480468-3.882812 11.566406c-1.515625 4.359376-.609375 9.195313 2.382812 12.710938 2.921875 3.53125 7.464844 5.300781 12.007813 4.679688l52.433593-7.503907 39.460938 15.710938c4.449219 1.855469 9.554688 1.144531 13.328125-1.851563l36.546875-29.308594 36.632812 29.394532c2.347657 1.828125 5.238282 2.820312 8.210938 2.824218 1.695312-.011718 3.371094-.34375 4.945312-.96875l39.546876-15.800781 52.523437 7.503907c4.542969.609374 9.082031-1.171876 11.992187-4.714844 2.914063-3.539063 3.785157-8.335938 2.308594-12.675782l-3.882812-11.566406 54.640625-20.480468c4.609375-1.734376 7.871093-5.882813 8.476562-10.769532.175781-1.082031.175781-2.183594 0-3.265625-.460937-3.804687-2.558593-7.21875-5.738281-9.355469zm-67.707031 28.867188c-6.5625 2.617188-9.964844 9.878906-7.769531 16.59375l3 8.917969-46.695313-6.710938c-2.210937-.253906-4.449219.015625-6.535156.792969l-38.3125 15.363281-37.25-29.839843c-2.367188-1.9375-5.328125-3-8.386719-3-2.996094-.035157-5.90625 1-8.210938 2.914062l-37.425781 29.925781-38.488281-15.449219c-2.097656-.726562-4.332031-.96875-6.535156-.707031l-46.519532 6.710938 3.089844-9.183594c2.050782-6.730469-1.460937-13.902344-8.035156-16.417969l-50.492188-18.890625 24.894532-16.597656v1.148437c0 4.875 3.949218 8.828126 8.824218 8.828126 4.878907 0 8.828126-3.953126 8.828126-8.828126v-17.65625c0-.351562-.175782-.617187-.175782-.882812.101563-.492188.160156-.996094.175782-1.5v-15.269531h16.507812v52.964843c0 4.875 3.953125 8.828126 8.828125 8.828126s8.828125-3.953126 8.828125-8.828126v-56.851562l27.628906-15.886719v81.566407c0 4.875 3.953125 8.828124 8.828125 8.828124s8.828125-3.953124 8.828125-8.828124v-86.335938l26.484375 5.296875v81.039063c0 4.875 3.949219 8.828124 8.828125 8.828124 4.875 0 8.824219-3.953124 8.824219-8.828124v-82.890626l17.65625-8.828124v74.0625c0 4.875 3.953125 8.828124 8.828125 8.828124s8.828125-3.953124 8.828125-8.828124v-73.976563l17.65625 8.742187v82.890626c0 4.875 3.949219 8.828124 8.824219 8.828124 4.878906 0 8.828125-3.953124 8.828125-8.828124v-81.039063l26.484375-5.296875v86.335938c0 4.875 3.953125 8.828124 8.828125 8.828124s8.828125-3.953124 8.828125-8.828124v-81.566407l27.628906 15.886719v56.851562c0 4.875 3.953125 8.828126 8.828125 8.828126s8.828125-3.953126 8.828125-8.828126v-52.964843h16.507812v15.269531c.015626.503906.074219 1.007812.175782 1.5 0 .265625-.175782.53125-.175782.882812v17.65625c0 4.875 3.949219 8.828126 8.828126 8.828126 4.875 0 8.824218-3.953126 8.824218-8.828126v-1.148437l24.894532 16.597656zm0 0" fill="#7f6e5d"/><path d="m448.617188 164.988281-50.667969 18.980469c-6.5625 2.617188-9.964844 9.878906-7.769531 16.59375l3 8.917969-46.695313-6.710938c-2.210937-.253906-4.449219.015625-6.535156.792969l-38.3125 15.363281-37.25-29.839843c-2.367188-1.9375-5.328125-3-8.386719-3-2.996094-.035157-5.90625 1-8.210938 2.914062l-37.425781 29.925781-38.488281-15.449219c-2.097656-.726562-4.332031-.96875-6.535156-.707031l-46.519532 6.710938 3.089844-9.183594c2.050782-6.730469-1.460937-13.902344-8.035156-16.417969l-50.492188-18.890625 24.894532-16.597656v1.148437c0 4.875 3.949218 8.828126 8.824218 8.828126 4.878907 0 8.828126-3.953126 8.828126-8.828126v-17.65625c0-.351562-.175782-.617187-.175782-.882812.101563-.492188.160156-.996094.175782-1.5v-15.269531h16.507812v52.964843c0 4.875 3.953125 8.828126 8.828125 8.828126s8.828125-3.953126 8.828125-8.828126v-56.851562l27.628906-15.886719v81.566407c0 4.875 3.953125 8.828124 8.828125 8.828124s8.828125-3.953124 8.828125-8.828124v-86.335938l26.484375 5.296875v81.039063c0 4.875 3.949219 8.828124 8.828125 8.828124 4.875 0 8.824219-3.953124 8.824219-8.828124v-82.890626l17.65625-8.828124v74.0625c0 4.875 3.953125 8.828124 8.828125 8.828124s8.828125-3.953124 8.828125-8.828124v-73.976563l17.65625 8.742187v82.890626c0 4.875 3.949219 8.828124 8.824219 8.828124 4.878906 0 8.828125-3.953124 8.828125-8.828124v-81.039063l26.484375-5.296875v86.335938c0 4.875 3.953125 8.828124 8.828125 8.828124s8.828125-3.953124 8.828125-8.828124v-81.566407l27.628906 15.886719v56.851562c0 4.875 3.953125 8.828126 8.828125 8.828126s8.828125-3.953126 8.828125-8.828126v-52.964843h16.507812v15.269531c.015626.503906.074219 1.007812.175782 1.5 0 .265625-.175782.53125-.175782.882812v17.65625c0 4.875 3.949219 8.828126 8.828126 8.828126 4.875 0 8.824218-3.953126 8.824218-8.828126v-1.148437zm0 0" fill="#cbb292"/></svg>