<svg height="505pt" viewBox="0 0 505 505.08812" width="505pt" xmlns="http://www.w3.org/2000/svg"><path d="m319.179688 316.453125s-31.726563 12.503906-47.671876 33.488281c-12.675781 16.535156-31.308593 41.96875-53.71875 35.757813 2.707032-9.742188 2.234376-20.09375-1.34375-29.546875l-11.332031-30.132813c-5.222656-13.617187-16.332031-24.140625-30.214843-28.621093l-30.71875-9.652344c-9.140626-2.90625-18.945313-2.964844-28.121094-.167969-8.980469-15.023437-4.445313-29.125 29.628906-48.683594 41.296875-23.667969 49.269531-39.28125 57.75-67.734375 6.171875 6.230469 11.097656 13.582032 14.519531 21.65625.832031 2.492188 2.785157 4.449219 5.273438 5.289063 2.488281.839843 5.226562.46875 7.398437-1.007813 14.4375-10.15625 37.351563-23 51.203125-13.933594 0 0-27.195312 17.121094-19.472656 39.53125 0 0 30.800781-20.8125 55.898437 4.28125 0 0-29.628906 14.691407-35.753906 30.722657 0 0 6.292969 21.066406 45.910156 1.59375-4.390624 12.785156-11.621093 24.40625-21.152343 33.992187-1.890625 1.847656-2.789063 4.480469-2.425781 7.097656.367187 2.617188 1.949218 4.90625 4.273437 6.164063 4.324219 2.148437 7.851563 5.617187 10.070313 9.90625zm0 0" fill="#e57e25"/><path d="m217.789062 385.699219c-1.179687 4.179687-2.898437 8.183593-5.121093 11.917969l-16.449219 27.949218c-7.542969 12.578125-20.328125 21.109375-34.832031 23.25l-31.980469 4.53125c-14.453125 2.15625-29.09375-2.457031-39.703125-12.503906l-23.332031-22.074219c-10.566406-10.039062-15.976563-24.347656-14.6875-38.863281l2.851562-32.230469c1.40625-14.59375 9.296875-27.78125 21.488282-35.925781l26.859374-17.960938c12.140626-8.160156 27.324219-10.382812 41.296876-6.042968l30.71875 9.652344c13.882812 4.480468 24.992187 15.003906 30.214843 28.621093l11.332031 30.132813c3.578126 9.453125 4.050782 19.804687 1.34375 29.546875zm0 0" fill="#464f5d"/><g fill="#5e5f62"><path d="m123.78125 345.660156c4.824219 4.792969 6.277344 12.023438 3.683594 18.308594-2.589844 6.285156-8.71875 10.382812-15.515625 10.382812-6.800781 0-12.929688-4.097656-15.519531-10.382812-2.59375-6.285156-1.140626-13.515625 3.683593-18.308594 3.128907-3.15625 7.390625-4.929687 11.835938-4.929687 4.441406 0 8.703125 1.773437 11.832031 4.929687zm0 0"/><path d="m156.011719 321.90625c-.085938 2.226562-.980469 4.347656-2.515625 5.960938-.773438.757812-1.683594 1.355468-2.6875 1.761718-1.042969.429688-2.148438.683594-3.273438.757813-2.207031-.066407-4.304687-.964844-5.875-2.519531-1.589844-1.578126-2.492187-3.71875-2.519531-5.960938.054687-1.089844.28125-2.167969.671875-3.1875.386719-1.035156 1.019531-1.957031 1.847656-2.6875.355469-.429688.78125-.796875 1.257813-1.089844.429687-.332031.914062-.589844 1.429687-.757812.511719-.214844 1.046875-.382813 1.59375-.5.503906-.085938 1.089844-.085938 1.59375-.167969 4.585938.152344 8.277344 3.808594 8.476563 8.390625zm0 0"/><path d="m193.53125 381.25c-.070312 2.230469-.964844 4.355469-2.519531 5.957031-.800781.761719-1.742188 1.359375-2.769531 1.765625-1.011719.425782-2.089844.683594-3.1875.753906-2.230469-.078124-4.351563-.976562-5.960938-2.519531-2.402344-2.402343-3.101562-6.023437-1.761719-9.148437.355469-1.027344.960938-1.949219 1.761719-2.683594.386719-.433594.839844-.800781 1.34375-1.09375.449219-.300781.925781-.554688 1.425781-.753906.503907-.167969 1.007813-.335938 1.597657-.503906.585937-.167969 1.089843-.082032 1.59375-.167969 4.585937.152343 8.277343 3.8125 8.476562 8.394531zm0 0"/><path d="m123.867188 416.894531c-1.570313-1.578125-2.472657-3.703125-2.519532-5.933593.050782-1.101563.292969-2.1875.714844-3.207032.367188-1.035156.976562-1.972656 1.777344-2.726562.378906-.421875.816406-.78125 1.300781-1.074219.441406-.308594.925781-.546875 1.4375-.714844.503906-.246093 1.039063-.425781 1.59375-.527343.53125-.089844 1.066406-.148438 1.601563-.175782 3.410156-.011718 6.488281 2.035156 7.789062 5.1875 1.304688 3.152344.570312 6.777344-1.851562 9.171875-.785157.765625-1.710938 1.371094-2.730469 1.78125-1.019531.421875-2.105469.660157-3.207031.714844-2.214844-.054687-4.324219-.945313-5.90625-2.496094zm0 0"/><path d="m123.78125 369.414062c-6.558594 6.550782-17.183594 6.546876-23.734375-.007812-6.554687-6.554688-6.554687-17.179688 0-23.738281 6.550781-6.554688 17.175781-6.558594 23.734375-.007813 3.167969 3.140625 4.953125 7.417969 4.953125 11.878906 0 4.460938-1.785156 8.734376-4.953125 11.875zm0 0"/></g><path d="m501.570312 178.800781c-3.289062-3.265625-8.605468-3.242187-11.867187.050781l-270.914063 273.65625c-45.894531 45.890626-120.296874 45.890626-166.1875-.003906-45.890624-45.890625-45.886718-120.292968.003907-166.183594l221.964843-221.964843c3.179688-3.292969 3.136719-8.527344-.101562-11.765625-3.238281-3.238282-8.472656-3.285156-11.765625-.101563l-221.933594 221.972657c-34.75 33.753906-48.625 83.609374-36.3125 130.464843 12.316407 46.855469 48.914063 83.445313 95.769531 95.753907 46.859376 12.308593 96.714844-1.578126 130.460938-36.335938l270.976562-273.710938c3.226563-3.296874 3.1875-8.585937-.09375-11.832031zm0 0" fill="#a5a5a4"/><path d="m242.515625 143.875c3.277344 3.277344 8.589844 3.277344 11.867187 0l129.730469-129.4375c2.183594-2.101562 3.0625-5.222656 2.300781-8.15625-.765624-2.9375-3.054687-5.230469-5.988281-6.003906-2.933593-.773438-6.054687.097656-8.164062 2.277344l-129.730469 129.449218c-3.28125 3.273438-3.289062 8.589844-.015625 11.871094zm0 0" fill="#a5a5a4"/><path d="m466.320312 121.808594-99.152343 99.226562c-2.234375 2.09375-3.152344 5.238282-2.390625 8.207032.761718 2.964843 3.074218 5.28125 6.042968 6.042968 2.964844.765625 6.109376-.148437 8.207032-2.382812l99.191406-99.191406c3.289062-3.289063 3.289062-8.617188 0-11.902344-3.285156-3.289063-8.613281-3.289063-11.898438 0zm0 0" fill="#a5a5a4"/><path d="m313.742188 191.363281c3.277343 3.277344 8.589843 3.277344 11.867187 0l147.105469-147.09375c2.179687-2.109375 3.054687-5.226562 2.289062-8.164062-.769531-2.933594-3.0625-5.226563-5.996094-5.992188-2.933593-.769531-6.054687.105469-8.160156 2.289063l-147.105468 147.09375c-3.277344 3.277344-3.277344 8.589844 0 11.867187zm0 0" fill="#a5a5a4"/></svg>