<svg height="512pt" viewBox="0 -5 512.0001 512" width="512pt" xmlns="http://www.w3.org/2000/svg"><g fill="#9fc9d3"><path d="m2.476562 500.308594c1.625 1.574218 3.792969 2.457031 6.058594 2.476562h-8.535156v-8.535156c-.0078125 2.269531.882812 4.445312 2.476562 6.058594zm0 0"/><path d="m512 494.25v8.535156h-8.535156c4.714844 0 8.535156-3.820312 8.535156-8.535156zm0 0"/><path d="m125.527344 440.574219c-3.367188 3.300781-8.753906 3.300781-12.121094 0-5.574219-4.296875-12.511719-6.445313-19.539062-6.058594-7.070313-.394531-14.042969 1.789063-19.628907 6.144531-3.421875 3.171875-8.742187 3.058594-12.03125-.253906-3.25-3.320312-3.25-8.628906 0-11.949219 8.765625-7.570312 20.089844-11.507812 31.660157-11.007812 11.570312-.5 22.894531 3.4375 31.660156 11.007812 3.324218 3.355469 3.324218 8.765625 0 12.117188zm0 0"/><path d="m202.238281 438.015625c-2.472656 11.332031-9.191406 21.285156-18.773437 27.820313-4.058594 2.289062-9.207032.925781-11.601563-3.074219-1.148437-1.957031-1.46875-4.289063-.894531-6.480469.578125-2.195312 2.003906-4.070312 3.964844-5.210938 10.773437-9.429687 14.667968-24.5 9.8125-37.972656-2.242188-4.082031-.800782-9.207031 3.242187-11.519531 1.933594-1.132813 4.238281-1.445313 6.402344-.871094 2.164063.578125 4.007813 2 5.117187 3.945313 5.171876 10.355468 6.148438 22.304687 2.730469 33.363281zm0 0"/><path d="m315.308594 421.800781c-1.394532 4.5-6.167969 7.023438-10.667969 5.632813-6.945313-1.214844-14.097656.121094-20.140625 3.753906-6.433594 2.917969-11.589844 8.074219-14.503906 14.507812-1.226563 3.476563-4.507813 5.800782-8.191406 5.804688-.875.023438-1.746094-.121094-2.5625-.429688-4.421876-1.425781-6.886719-6.128906-5.546876-10.578124 4.273438-10.75 12.4375-19.492188 22.871094-24.492188 10.027344-5.832031 21.914063-7.574219 33.195313-4.863281 2.164062.652343 3.976562 2.15625 5.019531 4.164062 1.042969 2.007813 1.234375 4.351563.527344 6.5zm0 0"/><path d="m407.125 397.910156c-3.363281 3.300782-8.75 3.300782-12.117188 0-11.804687-8.109375-27.398437-8.074218-39.167968.085938-3.425782 3.167968-8.746094 3.054687-12.03125-.257813-3.253906-3.316406-3.253906-8.628906 0-11.945312 8.417968-7.296875 19.238281-11.214844 30.378906-11.007813h1.277344c11.570312-.5 22.894531 3.4375 31.660156 11.007813 3.328125 3.351562 3.328125 8.761719 0 12.117187zm0 0"/><path d="m452.265625 414.71875c-1.375 11.511719-7.082031 22.070312-15.957031 29.527344-8.089844 7.921875-18.808594 12.597656-30.121094 13.140625h-.683594c-2.265625-.109375-4.390625-1.117188-5.914062-2.796875-1.519532-1.683594-2.308594-3.898438-2.191406-6.164063.265624-4.664062 4.203124-8.261719 8.875-8.105469 7.007812-.613281 13.570312-3.699218 18.515624-8.703124 5.527344-4.441407 9.230469-10.757813 10.410157-17.75.238281-4.714844 4.246093-8.34375 8.960937-8.105469 4.710938.234375 8.34375 4.246093 8.105469 8.957031zm0 0"/></g><path d="m374.1875 186.792969v138.414062c-1.472656.289063-2.921875.65625-4.351562 1.109375-22.660157-13.375-50.398438-14.933594-74.410157-4.183594-5.820312 2.667969-11.316406 5.992188-16.386719 9.898438-19.441406-9.648438-41.945312-11.09375-62.464843-4.011719-3.3125 1.191407-6.558594 2.558594-9.726563 4.097657-12.804687 6.398437-23.652344 16.125-31.402344 28.160156-11.589843-6.359375-24.4375-10.089844-37.632812-10.921875v-162.5625l118.1875-99.328125zm0 0" fill="#e6e7e8"/><path d="m295.425781 308.566406v13.566406c-5.820312 2.667969-11.316406 5.992188-16.386719 9.898438-19.441406-9.648438-41.945312-11.09375-62.464843-4.011719v-19.453125c0-14.542968 11.742187-26.359375 26.285156-26.453125h26.28125c14.542969.09375 26.285156 11.910157 26.285156 26.453125zm0 0" fill="#802d40"/><path d="m409.601562 171.945312c.050782 6.910157-2.722656 13.539063-7.679687 18.347657l-25.261719-21.675781-116.308594-99.410157c-2.507812-2.136719-6.195312-2.136719-8.703124 0l-116.308594 99.410157-22.613282 19.371093c-9.066406-8.929687-12.503906-22.109375-8.957031-34.328125 3.542969-12.222656 13.5-21.515625 25.9375-24.210937-4.210937-16.652344-.542969-34.3125 9.945313-47.917969 10.488281-13.601562 26.640625-21.636719 43.8125-21.796875 4.34375-.015625 8.671875.5 12.886718 1.535156-.070312-.507812-.097656-1.023437-.085937-1.535156 0-32.992187 26.746094-59.734375 59.734375-59.734375s59.734375 26.742188 59.734375 59.734375v.253906c19.542969 2.28125 34.246094 18.894531 34.132813 38.570313 0 1.539062-.085938 3.078125-.257813 4.609375 23.320313 2 41.578125 20.914062 42.753906 44.289062 10.390625 3.636719 17.320313 13.480469 17.238281 24.488281zm0 0" fill="#b0d3f0"/><path d="m439.464844 349.355469c-12.035156-16.195313-31.019532-25.75-51.199219-25.769531-4.738281-.019532-9.464844.523437-14.078125 1.621093-1.472656.289063-2.921875.65625-4.351562 1.109375-22.660157-13.375-50.398438-14.933594-74.410157-4.183594-5.820312 2.667969-11.316406 5.992188-16.386719 9.898438-19.441406-9.648438-41.945312-11.09375-62.464843-4.011719-3.3125 1.191407-6.558594 2.558594-9.726563 4.097657-12.804687 6.398437-23.652344 16.125-31.402344 28.160156-11.589843-6.359375-24.4375-10.089844-37.632812-10.921875-1.792969-.085938-3.667969-.171875-5.546875-.171875-19.730469.003906-38.90625 6.542968-54.527344 18.601562-18.183593-3.886718-37.15625.285156-52.03125 11.445313-14.871093 11.15625-24.183593 28.210937-25.535156 46.753906l-.171875 59.734375v8.53125c-.0078125 2.269531.882812 4.445312 2.476562 6.058594 1.625 1.574218 3.792969 2.457031 6.058594 2.476562h494.929688c4.714844 0 8.535156-3.820312 8.535156-8.535156v-68.605469c-.242188-40.59375-32.003906-74-72.535156-76.289062zm55.46875 136.363281h-477.867188l.171875-59.136719c1.113281-14.125 8.542969-26.988281 20.222657-35.007812 11.679687-8.015625 26.355468-10.332031 39.9375-6.292969 2.761718.78125 5.738281.140625 7.933593-1.707031 13.085938-11.175781 29.726563-17.316407 46.933594-17.324219 1.878906 0 3.671875.085938 5.546875.171875 9.980469.761719 19.691406 3.609375 28.503906 8.363281 2.511719 1.285156 4.933594 2.738282 7.25 4.351563 1.425782 1 3.125 1.539062 4.867188 1.535156.71875 0 1.433594-.085937 2.132812-.253906 2.382813-.609375 4.378906-2.230469 5.460938-4.4375.171875-.429688.425781-.769531.597656-1.195313 8.140625-15.496094 22.289062-26.96875 39.132812-31.730468 16.847657-4.757813 34.90625-2.390626 49.953126 6.554687 3.21875 1.902344 7.300781 1.488281 10.070312-1.023437 2.96875-2.703126 6.199219-5.105469 9.644531-7.167969 21.199219-12.878907 47.933594-12.347657 68.605469 1.367187 2.289062 1.550782 5.195312 1.867188 7.765625.851563.769531-.253907 1.621094-.597657 2.390625-.765625 4.546875-1.472656 9.300781-2.21875 14.078125-2.21875 16.011719-.015625 30.917969 8.164062 39.511719 21.671875 1.65625 2.476562 4.445312 3.949219 7.421875 3.925781 32.976562.039062 59.695312 26.761719 59.734375 59.734375zm0 0" fill="#2fa8cc"/><path d="m494.933594 425.984375v59.734375h-477.867188l.171875-59.136719c1.113281-14.125 8.542969-26.988281 20.222657-35.007812 11.679687-8.015625 26.355468-10.332031 39.9375-6.292969 2.761718.78125 5.738281.140625 7.933593-1.707031 13.085938-11.175781 29.726563-17.316407 46.933594-17.324219 1.878906 0 3.671875.085938 5.546875.171875 9.980469.761719 19.691406 3.609375 28.503906 8.363281 2.511719 1.285156 4.933594 2.738282 7.25 4.351563 1.425782 1 3.125 1.539062 4.867188 1.535156.71875 0 1.433594-.085937 2.132812-.253906 2.382813-.609375 4.378906-2.230469 5.460938-4.4375.171875-.429688.425781-.769531.597656-1.195313 8.140625-15.496094 22.289062-26.96875 39.132812-31.730468 16.847657-4.757813 34.90625-2.390626 49.953126 6.554687 3.21875 1.902344 7.300781 1.488281 10.070312-1.023437 2.96875-2.703126 6.199219-5.105469 9.644531-7.167969 21.199219-12.878907 47.933594-12.347657 68.605469 1.367187 2.289062 1.550782 5.195312 1.867188 7.765625.851563.769531-.253907 1.621094-.597657 2.390625-.765625 4.546875-1.472656 9.300781-2.21875 14.078125-2.21875 16.011719-.015625 30.917969 8.164062 39.511719 21.671875 1.65625 2.476562 4.445312 3.949219 7.421875 3.925781 32.976562.039062 59.695312 26.761719 59.734375 59.734375zm0 0" fill="#b0d3f0"/><path d="m407.125 397.910156c-3.363281 3.300782-8.75 3.300782-12.117188 0-11.804687-8.109375-27.398437-8.074218-39.167968.085938-3.425782 3.167968-8.746094 3.054687-12.03125-.257813-3.253906-3.316406-3.253906-8.628906 0-11.945312 8.417968-7.296875 19.238281-11.214844 30.378906-11.007813h1.277344c11.570312-.5 22.894531 3.4375 31.660156 11.007813 3.328125 3.351562 3.328125 8.761719 0 12.117187zm0 0" fill="#2fa8cc"/><path d="m125.527344 440.574219c-3.367188 3.300781-8.753906 3.300781-12.121094 0-5.574219-4.296875-12.511719-6.445313-19.539062-6.058594-7.070313-.394531-14.042969 1.789063-19.628907 6.144531-3.421875 3.171875-8.742187 3.058594-12.03125-.253906-3.25-3.320312-3.25-8.628906 0-11.949219 8.765625-7.570312 20.089844-11.507812 31.660157-11.007812 11.570312-.5 22.894531 3.4375 31.660156 11.007812 3.324218 3.355469 3.324218 8.765625 0 12.117188zm0 0" fill="#2fa8cc"/><path d="m315.308594 421.800781c-1.394532 4.5-6.167969 7.023438-10.667969 5.632813-6.945313-1.214844-14.097656.121094-20.140625 3.753906-6.433594 2.917969-11.589844 8.074219-14.503906 14.507812-1.226563 3.476563-4.507813 5.800782-8.191406 5.804688-.875.023438-1.746094-.121094-2.5625-.429688-4.421876-1.425781-6.886719-6.128906-5.546876-10.578124 4.273438-10.75 12.4375-19.492188 22.871094-24.492188 10.027344-5.832031 21.914063-7.574219 33.195313-4.863281 2.164062.652343 3.976562 2.15625 5.019531 4.164062 1.042969 2.007813 1.234375 4.351563.527344 6.5zm0 0" fill="#2fa8cc"/><path d="m202.238281 438.015625c-2.472656 11.332031-9.191406 21.285156-18.773437 27.820313-4.058594 2.289062-9.207032.925781-11.601563-3.074219-1.148437-1.957031-1.46875-4.289063-.894531-6.480469.578125-2.195312 2.003906-4.070312 3.964844-5.210938 10.773437-9.429687 14.667968-24.5 9.8125-37.972656-2.242188-4.082031-.800782-9.207031 3.242187-11.519531 1.933594-1.132813 4.238281-1.445313 6.402344-.871094 2.164063.578125 4.007813 2 5.117187 3.945313 5.171876 10.355468 6.148438 22.304687 2.730469 33.363281zm0 0" fill="#2fa8cc"/><path d="m452.265625 414.71875c-1.375 11.511719-7.082031 22.070312-15.957031 29.527344-8.089844 7.921875-18.808594 12.597656-30.121094 13.140625h-.683594c-2.265625-.109375-4.390625-1.117188-5.914062-2.796875-1.519532-1.683594-2.308594-3.898438-2.191406-6.164063.265624-4.664062 4.203124-8.261719 8.875-8.105469 7.007812-.613281 13.570312-3.699218 18.515624-8.703124 5.527344-4.441407 9.230469-10.757813 10.410157-17.75.238281-4.714844 4.246093-8.34375 8.960937-8.105469 4.710938.234375 8.34375 4.246093 8.105469 8.957031zm0 0" fill="#2fa8cc"/><path d="m295.390625 189.441406c0-21.933594-17.636719-39.714844-39.390625-39.714844s-39.390625 17.78125-39.390625 39.714844 17.636719 39.710938 39.390625 39.710938 39.390625-17.777344 39.390625-39.710938zm0 0" fill="#e6e7e8"/><path d="m423.671875 211.148438c-2.476563 3.039062-6.195313 4.792968-10.113281 4.769531-3.066406-.023438-6.035156-1.097657-8.40625-3.046875l-30.984375-26.078125-118.167969-99.292969-118.167969 99.292969-30.984375 26.078125c-5.589844 4.628906-13.871094 3.867187-18.519531-1.707032-4.578125-5.65625-3.820313-13.925781 1.707031-18.660156l153.359375-128.855468c7.277344-6.15625 17.933594-6.15625 25.210938 0l153.359375 128.855468c5.515625 4.730469 6.273437 12.992188 1.707031 18.644532zm0 0" fill="#802d40"/><path d="m295.390625 189.441406c0-21.933594-17.636719-39.714844-39.390625-39.714844s-39.390625 17.78125-39.390625 39.714844 17.636719 39.710938 39.390625 39.710938 39.390625-17.777344 39.390625-39.710938zm0 0" fill="#2fa8cc"/></svg>