<svg height="512pt" viewBox="0 0 512 512" width="512pt" xmlns="http://www.w3.org/2000/svg"><path d="m512 256c0 141.386719-114.613281 256-256 256s-256-114.613281-256-256 114.613281-256 256-256 256 114.613281 256 256zm0 0" fill="#fe6a16"/><path d="m512 256c0-1.726562-.03125-3.449219-.066406-5.167969l-104.832032-104.832031-23.238281 7.535156-96.539062-96.535156-65.542969 170.1875-116.882812-81.1875 94.332031 94.335938-142.230469 46.988281 94.382812 94.382812-5.382812 25.394531 104.832031 104.832032c1.71875.035156 3.441407.066406 5.167969.066406 141.386719 0 256-114.613281 256-256zm0 0" fill="#f24500"/><path d="m267.324219 253h-22.648438l-20-196h62.648438zm0 0" fill="#ffde52"/><path d="m287.324219 57h-31.730469v196h11.730469zm0 0" fill="#ffc200"/><path d="m244.675781 259h22.648438l20 196h-62.648438zm0 0" fill="#ffde52"/><path d="m267.324219 259h-11.730469v196h31.730469zm0 0" fill="#ffc200"/><path d="m259 267.324219v-22.648438l196-20v62.648438zm0 0" fill="#ffc200"/><path d="m253 244.675781v22.648438l-196 20v-62.648438zm0 0" fill="#ffde52"/><path d="m265.398438 261.460938-14.859376-14.859376 115.460938-141.703124 41.101562 41.101562zm0 0" fill="#ffc200"/><path d="m246.601562 250.539062 14.859376 14.859376-115.460938 141.703124-41.101562-41.101562zm0 0" fill="#ffde52"/><path d="m261.460938 246.601562-14.859376 14.859376-141.703124-115.460938 41.101562-41.101562zm0 0" fill="#ffde52"/><path d="m250.539062 265.398438 14.859376-14.859376 141.703124 115.460938-41.101562 41.101562zm0 0" fill="#ffc200"/><path d="m372.089844 256c0 64.113281-51.976563 116.089844-116.089844 116.089844s-116.089844-51.976563-116.089844-116.089844 51.976563-116.089844 116.089844-116.089844 116.089844 51.976563 116.089844 116.089844zm0 0" fill="#ffce00"/><path d="m256 139.910156c-.136719 0-.269531.003906-.40625.003906v232.167969c.136719 0 .269531.007813.40625.007813 64.113281 0 116.089844-51.976563 116.089844-116.089844s-51.976563-116.089844-116.089844-116.089844zm0 0" fill="#ffa300"/></svg>