<?xml version="1.0" encoding="iso-8859-1"?>
<!-- Generator: Adobe Illustrator 19.0.0, SVG Export Plug-In . SVG Version: 6.00 Build 0)  -->
<svg version="1.1" id="Layer_1" xmlns="http://www.w3.org/2000/svg" xmlns:xlink="http://www.w3.org/1999/xlink" x="0px" y="0px"
	 viewBox="0 0 511.999 511.999" style="enable-background:new 0 0 511.999 511.999;" xml:space="preserve">
<rect x="239.831" y="481.108" style="fill:#DD711F;" width="32.337" height="30.891"/>
<path style="fill:#FF9B00;" d="M82.588,183.403v140.46c0,95.62,77.792,173.412,173.412,173.412s173.412-77.792,173.412-173.412
	v-140.46L82.588,183.403L82.588,183.403z"/>
<path style="fill:#C06100;" d="M429.411,183.403v140.46c0,95.62-77.792,173.412-173.412,173.412V183.403L429.411,183.403
	L429.411,183.403z"/>
<rect x="239.831" style="fill:#DD711F;" width="32.337" height="92.009"/>
<path style="fill:#C06100;" d="M366.699,75.84H145.3c-61.483,0-111.497,50.014-111.497,111.497v28.403h444.394v-28.403
	C478.197,125.854,428.182,75.84,366.699,75.84z"/>
<path style="fill:#723700;" d="M478.197,187.337v28.403H255.999V75.84h110.7C428.182,75.84,478.197,125.854,478.197,187.337z"/>
<g>
</g>
<g>
</g>
<g>
</g>
<g>
</g>
<g>
</g>
<g>
</g>
<g>
</g>
<g>
</g>
<g>
</g>
<g>
</g>
<g>
</g>
<g>
</g>
<g>
</g>
<g>
</g>
<g>
</g>
</svg>
