<?xml version="1.0" encoding="iso-8859-1"?>
<!-- Generator: Adobe Illustrator 19.0.0, SVG Export Plug-In . SVG Version: 6.00 Build 0)  -->
<svg version="1.1" id="Layer_1" xmlns="http://www.w3.org/2000/svg" xmlns:xlink="http://www.w3.org/1999/xlink" x="0px" y="0px"
	 viewBox="0 0 504.123 504.123" style="enable-background:new 0 0 504.123 504.123;" xml:space="preserve">
<g>
	<path style="fill:#56441F;" d="M228.218,361.913c0,19.503-15.817,124.668-35.336,124.668c-19.495,0-35.304-105.173-35.304-124.668
		c0-19.495,15.817-35.32,35.304-35.32C212.401,326.593,228.218,342.418,228.218,361.913z"/>
	<path style="fill:#56441F;" d="M346.569,361.913c0,19.503-15.817,124.668-35.336,124.668c-19.495,0-35.304-105.173-35.304-124.668
		c0-19.495,15.817-35.32,35.304-35.32C330.752,326.593,346.569,342.418,346.569,361.913z"/>
</g>
<path style="fill:#678206;" d="M351.705,315.242c0,126.33-44.599,84.259-99.643,84.259c-55.028,0-99.643,42.071-99.643-84.259
	c0-72.231,44.631-130.781,99.643-130.781C307.09,184.47,351.705,243.019,351.705,315.242z"/>
<path style="fill:#7AA30A;" d="M252.062,184.47c-50.121,0-91.506,48.64-98.493,111.892c7.326,87.465,48.632,52.933,98.493,52.933
	c49.869,0,91.168,34.532,98.493-52.933C343.568,233.11,302.19,184.47,252.062,184.47z"/>
<path style="fill:#F47603;" d="M232.629,487.219c0,14.935-17.802,16.904-39.739,16.904s-39.739-1.961-39.739-16.904
	c0-14.943,17.802-35.509,39.739-35.509S232.629,472.277,232.629,487.219z"/>
<path style="fill:#DD6503;" d="M232.629,487.219c0,14.935-17.802,16.904-39.739,16.904s-39.739-1.961-39.739-16.904"/>
<path style="fill:#F47603;" d="M350.988,487.219c0,14.935-17.802,16.904-39.739,16.904s-39.739-1.961-39.739-16.904
	c0-14.943,17.802-35.509,39.739-35.509S350.988,472.277,350.988,487.219z"/>
<path style="fill:#DD6503;" d="M350.988,487.219c0,14.935-17.802,16.904-39.739,16.904s-39.739-1.961-39.739-16.904"/>
<path style="fill:#EAE6BB;" d="M381.015,124.258c0,63.008-57.738,94.681-128.937,94.681c-71.215,0-128.969-31.673-128.969-94.681
	C123.108,61.235,180.862,0,252.077,0C323.277,0,381.015,61.235,381.015,124.258z"/>
<path style="fill:#DDD6A6;" d="M381.015,124.258c0,63.008-57.738,94.681-128.937,94.681c-71.215,0-128.969-31.673-128.969-94.681"/>
<circle style="fill:#113E49;" cx="190.748" cy="138.004" r="11.532"/>
<path d="M202.279,137.98c0,6.388-5.167,11.54-11.54,11.54c-6.372,0-11.524-5.152-11.524-11.54"/>
<path style="fill:#EAE6BB;" d="M213.496,162.028c-0.614,0-1.245-0.221-1.725-0.717c-5.632-5.624-13.107-8.72-21.047-8.72h-0.016
	c-7.94,0-15.399,3.104-21,8.712c-0.953,0.953-2.489,0.977-3.434,0.008c-0.953-0.922-0.985-2.458-0.031-3.419
	c6.538-6.546,15.218-10.161,24.458-10.161h0.016c9.263,0,17.951,3.592,24.505,10.145c0.937,0.937,0.937,2.505,0,3.434
	C214.756,161.808,214.142,162.028,213.496,162.028z"/>
<circle style="fill:#113E49;" cx="313.423" cy="138.004" r="11.532"/>
<path d="M301.859,137.98c0,6.388,5.151,11.54,11.54,11.54c6.372,0,11.524-5.152,11.524-11.54"/>
<path style="fill:#EAE6BB;" d="M290.643,162.028c0.599,0,1.229-0.221,1.709-0.717c5.632-5.624,13.107-8.72,21.047-8.72h0.016
	c7.94,0,15.415,3.104,21.016,8.712c0.937,0.953,2.473,0.977,3.434,0.008c0.953-0.922,0.969-2.458,0.016-3.419
	c-6.506-6.546-15.218-10.161-24.458-10.161h-0.016c-9.248,0-17.936,3.592-24.505,10.145c-0.922,0.937-0.922,2.505,0,3.434
	C289.382,161.808,289.997,162.028,290.643,162.028z"/>
<path style="fill:#F47603;" d="M280.505,160.792c0,3.631-12.737,15.935-28.428,15.935s-28.428-12.304-28.428-15.935
	c0-3.647,12.737-20.322,28.428-20.322S280.505,157.145,280.505,160.792z"/>
<path style="fill:#DD6503;" d="M280.505,160.792c0,3.631-12.737,15.935-28.428,15.935s-28.428-12.304-28.428-15.935
	c0-3.647,12.737,3.797,28.428,3.797S280.505,157.145,280.505,160.792z"/>
<path style="fill:#DDD6A6;" d="M345.309,291.643c4.742-14.344-9.862-32.02-32.603-39.534
	c-22.709-7.491-138.398-32.713-143.155-18.408c-4.71,14.336,103.353,62.818,126.078,70.309
	C318.338,311.517,340.582,305.971,345.309,291.643z"/>
<path style="fill:#EAE6BB;" d="M158.815,291.643c-4.742-14.344,9.862-32.02,32.603-39.534
	c22.709-7.491,138.398-32.713,143.155-18.408c4.71,14.336-103.353,62.818-126.078,70.309
	C185.785,311.517,163.541,305.971,158.815,291.643z"/>
<path style="fill:#7A4E0E;" d="M296.369,240.569c-0.859-3.285-1.449-6.412-1.906-9.452c-2.213,0.268-4.466,0.551-6.774,0.859
	c0.362,4.506,1.15,9.492,2.529,14.746c1.709,6.498,3.97,12.304,6.412,16.927c2.513-1.371,4.955-2.725,7.31-4.072
	C301.048,254.7,298.338,248.084,296.369,240.569z"/>
<circle style="fill:#38494C;" cx="291.32" cy="240.561" r="13.627"/>
<circle style="fill:#A3E1EF;" cx="290.265" cy="239.025" r="7.633"/>
<path style="fill:#AA1111;" d="M291.903,24.804V6.632C279.355,2.402,265.988,0,252.077,0c-13.926,0-27.301,2.41-39.865,6.64v18.172
	c0,22.016,17.833,39.849,39.849,39.849C274.07,64.654,291.903,46.82,291.903,24.804z"/>
<path style="fill:#D10F0F;" d="M212.212,6.64v3.403c0,22.016,17.833,39.849,39.849,39.849c22.008,0,39.841-17.833,39.841-39.849
	V6.632C279.355,2.402,265.988,0,252.077,0C238.151,0,224.776,2.41,212.212,6.64z"/>
<g>
	<path style="fill:#238403;" d="M191.173,172.961c-26.049,0-47.262-21.197-47.262-47.262s21.213-47.262,47.262-47.262
		c26.081,0,47.262,21.197,47.262,47.262S217.246,172.961,191.173,172.961z M191.173,94.192c-17.369,0-31.508,14.131-31.508,31.508
		s14.139,31.508,31.508,31.508c17.384,0,31.508-14.131,31.508-31.508S208.557,94.192,191.173,94.192z"/>
	<path style="fill:#238403;" d="M148.842,133.577h-22.969c-4.356,0-7.877-3.521-7.877-7.877c0-4.356,3.521-7.877,7.877-7.877h22.969
		c4.356,0,7.877,3.521,7.877,7.877C156.719,130.056,153.198,133.577,148.842,133.577z"/>
	<path style="fill:#238403;" d="M312.95,172.961c-26.081,0-47.262-21.197-47.262-47.262s21.181-47.262,47.262-47.262
		c26.049,0,47.262,21.197,47.262,47.262S338.999,172.961,312.95,172.961z M312.95,94.192c-17.384,0-31.508,14.131-31.508,31.508
		s14.123,31.508,31.508,31.508c17.369,0,31.508-14.131,31.508-31.508S330.327,94.192,312.95,94.192z"/>
	<path style="fill:#238403;" d="M378.25,133.577h-22.969c-4.356,0-7.877-3.521-7.877-7.877c0-4.356,3.521-7.877,7.877-7.877h22.969
		c4.372,0,7.877,3.521,7.877,7.877C386.127,130.056,382.614,133.577,378.25,133.577z"/>
	<rect x="231.259" y="100.1" style="fill:#238403;" width="47.262" height="15.754"/>
</g>
<g>
</g>
<g>
</g>
<g>
</g>
<g>
</g>
<g>
</g>
<g>
</g>
<g>
</g>
<g>
</g>
<g>
</g>
<g>
</g>
<g>
</g>
<g>
</g>
<g>
</g>
<g>
</g>
<g>
</g>
</svg>
