<?xml version="1.0" encoding="iso-8859-1"?>
<!-- Generator: Adobe Illustrator 19.0.0, SVG Export Plug-In . SVG Version: 6.00 Build 0)  -->
<svg version="1.1" id="Layer_1" xmlns="http://www.w3.org/2000/svg" xmlns:xlink="http://www.w3.org/1999/xlink" x="0px" y="0px"
	 viewBox="0 0 511.999 511.999" style="enable-background:new 0 0 511.999 511.999;" xml:space="preserve">
<circle style="fill:#3A99D7;" cx="255.975" cy="255.997" r="255.975"/>
<path style="fill:#2682BF;" d="M203.727,506.662l-89.955-86.093L370.098,94.645l140.047,130.42
	c1.203,10.129,1.855,20.457,1.855,30.938c0,141.4-114.624,255.974-255.974,255.974c-17.9,0-35.401-1.855-52.299-5.365
	L203.727,506.662L203.727,506.662z"/>
<path style="fill:#FFB700;" d="M150.426,111.994h211.148c5.87,0,10.63,4.759,10.63,10.63v292.629c0,5.87-4.759,10.63-10.63,10.63
	H150.426c-5.87,0-10.63-4.759-10.63-10.63V122.625C139.796,116.753,144.555,111.994,150.426,111.994z"/>
<path style="fill:#ED5300;" d="M316.496,86.12h39.06c9.176,0,16.647,7.521,16.647,16.647v43.824v68.143v10.78h-72.405H268.21
	c-5.916,0-10.78-4.864-10.78-10.78v-46.532c0-5.916,5.866-7.421,10.78-10.78l31.589-21.661v-33.044
	c0-9.176,7.521-16.647,16.647-16.647L316.496,86.12z"/>
<path style="fill:#FF5900;" d="M156.442,86.12h39.06c9.176,0,16.647,7.521,16.647,16.647v33.044l31.589,19.656
	c5.014,3.109,10.78,4.864,10.78,10.78v48.487c0,5.916-4.864,10.78-10.78,10.78h-31.589h-72.405v-10.78v-68.142v-43.824
	c0-9.176,7.521-16.647,16.647-16.647L156.442,86.12L156.442,86.12z"/>
<g>
	<path style="fill:#E6E6E6;" d="M158.298,86.12h30.035v28.03c0,1.304-1.053,2.357-2.357,2.357h-25.321
		c-1.304,0-2.357-1.053-2.357-2.357L158.298,86.12L158.298,86.12z"/>
	<path style="fill:#E6E6E6;" d="M323.666,86.12h30.035v28.03c0,1.304-1.053,2.357-2.357,2.357h-25.321
		c-1.304,0-2.357-1.053-2.357-2.357L323.666,86.12L323.666,86.12z"/>
</g>
<path style="fill:#FF5900;" d="M128.564,237.099c112.669,0,142.203,0,254.872,0c13.539,0,24.62,11.834,24.62,26.325v136.135
	c0,14.491-11.082,26.325-24.62,26.325H128.564c-13.539,0-24.62-11.834-24.62-26.325V263.423
	C103.944,248.932,115.025,237.099,128.564,237.099z"/>
<path style="fill:#ED5300;" d="M255.974,237.099h127.411c13.539,0,24.62,11.834,24.62,26.325v136.135
	c0,14.491-11.082,26.325-24.62,26.325H255.974V237.049V237.099z"/>
<g>
	<path style="fill:#FFFFFF;" d="M408.055,364.058v26.926H103.944v-26.926H408.055z"/>
	<path style="fill:#FFFFFF;" d="M408.055,314.869v26.926H103.944v-26.926H408.055z"/>
</g>
<g>
	<path style="fill:#666666;" d="M161.658,302.935h15.393v100.384h-15.393V302.935z M334.998,302.935h15.393v100.384h-15.393V302.935
		z"/>
	<path style="fill:#666666;" d="M241.333,310.807h37.405c2.006,0,3.66,1.755,3.66,3.911v27.127c0,2.156-1.655,3.911-3.66,3.911
		h-37.405v2.758h-12.686v-40.515h12.686v2.758V310.807z"/>
</g>
<path style="fill:#999999;" d="M252.264,308.15h30.135v40.315h-30.135c-4.012,0-7.321-3.309-7.321-7.321v-25.673
	C244.944,311.459,248.253,308.15,252.264,308.15z"/>
<path style="fill:#666666;" d="M241.333,359.996h37.405c2.006,0,3.66,1.755,3.66,3.911v27.127c0,2.156-1.655,3.911-3.66,3.911
	h-37.405v2.758h-12.686v-40.515h12.686v2.758V359.996z"/>
<path style="fill:#999999;" d="M252.264,357.339h30.135v40.315h-30.135c-4.012,0-7.321-3.309-7.321-7.321V364.66
	C244.944,360.649,248.253,357.339,252.264,357.339z"/>
<g>
	<rect x="266.41" y="174.124" style="fill:#FFFFFF;" width="105.804" height="8.976"/>
	<rect x="266.41" y="195.383" style="fill:#FFFFFF;" width="105.804" height="8.976"/>
	<rect x="139.798" y="174.124" style="fill:#FFFFFF;" width="105.804" height="8.976"/>
	<rect x="139.798" y="195.383" style="fill:#FFFFFF;" width="105.804" height="8.976"/>
</g>
<g>
</g>
<g>
</g>
<g>
</g>
<g>
</g>
<g>
</g>
<g>
</g>
<g>
</g>
<g>
</g>
<g>
</g>
<g>
</g>
<g>
</g>
<g>
</g>
<g>
</g>
<g>
</g>
<g>
</g>
</svg>
