<svg height="512pt" viewBox="0 -1 512 512" width="512pt" xmlns="http://www.w3.org/2000/svg"><path d="m132.414062 326.621094c-79.449218 0-123.058593-9.800782-88.277343-97.105469 30.984375-77.769531 17.65625-105.929687-17.652344-150.066406 0 0 79.445313 0 88.273437 26.480469 0 0 8.828126-97.101563 70.621094-105.929688 0 0-17.65625 52.964844 35.3125 70.621094 0 0 17.652344-61.792969 105.929688-61.792969 0 0-26.484375 52.964844-8.828125 79.449219 0 0 48.023437 17.652344 83.332031-52.96875 0 0 35.3125 44.140625 17.65625 97.105468 0 0 22.597656-26.484374 66.734375-17.65625 0 0-33.808594 52.964844-25.070313 97.105469 8.652344 43.519531 25.070313 114.757813-80.859374 114.757813zm0 0" fill="#f29c1f"/><path d="m211.863281 421.515625h-79.449219v-209.300781l123.585938-105.664063 123.585938 105.664063v209.300781zm0 0" fill="#e6e7e8"/><path d="m300.136719 317.792969v105.929687h-88.273438v-105.929687c.027344-9.738281 7.914063-17.625 17.652344-17.65625h52.96875c9.738281.03125 17.625 7.917969 17.652344 17.65625zm0 0" fill="#3f5c6c"/><path d="m430.433594 244.082031c-1.523438 1.78125-3.6875 2.882813-6.023438 3.0625-2.332031.183594-4.644531-.570312-6.425781-2.089843l-38.398437-32.839844-123.585938-105.664063-123.585938 105.664063-38.398437 32.839844c-3.707031 3.167968-9.28125 2.734374-12.449219-.972657-3.167968-3.703125-2.734375-9.277343.972656-12.445312l163.222657-139.566407c5.878906-4.960937 14.46875-5 20.390625-.085937l163.308594 139.652344c1.78125 1.519531 2.882812 3.6875 3.066406 6.019531.179687 2.335938-.574219 4.648438-2.09375 6.425781zm0 0" fill="#3f5c6c"/><path d="m300.136719 220.691406c0 24.375-19.761719 44.136719-44.136719 44.136719s-44.136719-19.761719-44.136719-44.136719c0-24.378906 19.761719-44.140625 44.136719-44.140625s44.136719 19.761719 44.136719 44.140625zm0 0" fill="#2fa8cc"/><path d="m247.171875 370.757812c-4.875 0-8.828125-3.953124-8.828125-8.828124v-8.828126c0-4.875 3.953125-8.824218 8.828125-8.824218s8.828125 3.949218 8.828125 8.824218v8.828126c0 4.875-3.953125 8.828124-8.828125 8.828124zm0 0" fill="#2fa8cc"/><path d="m512 425.84375v79.625c-.007812 1.160156-.476562 2.269531-1.304688 3.082031-.828124.8125-1.949218 1.257813-3.109374 1.242188h-503.171876c-1.160156.015625-2.28125-.429688-3.109374-1.242188-.828126-.8125-1.2968755-1.921875-1.304688-3.082031v-79.625c.0078125-1.160156.476562-2.269531 1.304688-3.082031.828124-.8125 1.949218-1.261719 3.109374-1.246094h503.171876c1.160156-.015625 2.28125.433594 3.109374 1.246094.828126.8125 1.296876 1.921875 1.304688 3.082031zm0 0" fill="#4c8056"/><path d="m512 425.84375v39.8125h-512v-39.8125c.0078125-1.160156.476562-2.269531 1.304688-3.082031.828124-.8125 1.949218-1.261719 3.109374-1.246094h503.171876c1.160156-.015625 2.28125.433594 3.109374 1.246094.828126.8125 1.296876 1.921875 1.304688 3.082031zm0 0" fill="#24ae5f"/></svg>